<?xml version="1.0" encoding="UTF-8" standalone="no"?>
<!-- Uploaded to: SVG Repo, www.svgrepo.com, Generator: SVG Repo Mixer Tools -->

<svg
   height="800px"
   width="800px"
   version="1.1"
   id="Layer_1"
   viewBox="0 0 512 512"
   xml:space="preserve"
   sodipodi:docname="centrifuge fast conveyor.svg"
   inkscape:version="1.3.2 (091e20e, 2023-11-25, custom)"
   xmlns:inkscape="http://www.inkscape.org/namespaces/inkscape"
   xmlns:sodipodi="http://sodipodi.sourceforge.net/DTD/sodipodi-0.dtd"
   xmlns="http://www.w3.org/2000/svg"
   xmlns:svg="http://www.w3.org/2000/svg"><defs
   id="defs9" /><sodipodi:namedview
   id="namedview9"
   pagecolor="#ffffff"
   bordercolor="#111111"
   borderopacity="1"
   inkscape:showpageshadow="0"
   inkscape:pageopacity="0"
   inkscape:pagecheckerboard="1"
   inkscape:deskcolor="#d1d1d1"
   inkscape:zoom="0.36388287"
   inkscape:cx="399.85395"
   inkscape:cy="542.75707"
   inkscape:window-width="1920"
   inkscape:window-height="1121"
   inkscape:window-x="-9"
   inkscape:window-y="-9"
   inkscape:window-maximized="1"
   inkscape:current-layer="Layer_1" />







<g
   id="SVGRepo_iconCarrier"
   transform="matrix(1.0893617,0,0,1.0893617,-0.231491,-3.2)"> <g
   id="g11"> <path
   d="M 410,0 H 60 c -4.142,0 -7.5,3.357 -7.5,7.5 v 455 c 0,4.143 3.358,7.5 7.5,7.5 h 350 c 4.142,0 7.5,-3.357 7.5,-7.5 V 7.5 C 417.5,3.357 414.142,0 410,0 Z M 67.5,455 V 365 H 350 c 4.142,0 7.5,-3.357 7.5,-7.5 0,-4.143 -3.358,-7.5 -7.5,-7.5 H 67.5 V 15 h 335 V 350 H 380 c -4.142,0 -7.5,3.357 -7.5,7.5 0,4.143 3.358,7.5 7.5,7.5 h 22.5 v 90 z"
   id="path1" /> <path
   d="M 235,40 C 156.425,40 92.5,103.925 92.5,182.5 92.5,261.075 156.425,325 235,325 313.575,325 377.5,261.075 377.5,182.5 377.5,103.925 313.575,40 235,40 Z m 0,270 C 164.696,310 107.5,252.804 107.5,182.5 107.5,112.196 164.696,55 235,55 305.304,55 362.5,112.196 362.5,182.5 362.5,252.804 305.304,310 235,310 Z"
   id="path2" /> <path
   d="m 347.5,380 c -16.542,0 -30,13.458 -30,30 0,16.542 13.458,30 30,30 16.542,0 30,-13.458 30,-30 0,-16.542 -13.458,-30 -30,-30 z m 0,45 c -8.271,0 -15,-6.729 -15,-15 0,-8.271 6.729,-15 15,-15 8.271,0 15,6.729 15,15 0,8.271 -6.729,15 -15,15 z"
   id="path3" /> <path
   d="m 122.5,380 c -16.542,0 -30,13.458 -30,30 0,16.542 13.458,30 30,30 16.542,0 30,-13.458 30,-30 0,-16.542 -13.458,-30 -30,-30 z m 0,45 c -8.271,0 -15,-6.729 -15,-15 0,-8.271 6.729,-15 15,-15 8.271,0 15,6.729 15,15 0,8.271 -6.729,15 -15,15 z"
   id="path4" /> <path
   d="M 285,402.5 H 185 c -4.142,0 -7.5,3.357 -7.5,7.5 0,4.143 3.358,7.5 7.5,7.5 h 100 c 4.142,0 7.5,-3.357 7.5,-7.5 0,-4.143 -3.358,-7.5 -7.5,-7.5 z"
   id="path5" /> <path
   d="m 235,80 c -15.164,0 -27.5,12.337 -27.5,27.5 0,15.163 12.336,27.5 27.5,27.5 15.164,0 27.5,-12.337 27.5,-27.5 C 262.5,92.337 250.164,80 235,80 Z m 0,40 c -6.893,0 -12.5,-5.607 -12.5,-12.5 0,-6.893 5.607,-12.5 12.5,-12.5 6.893,0 12.5,5.607 12.5,12.5 0,6.893 -5.607,12.5 -12.5,12.5 z"
   id="path6" /> <path
   d="m 183.798,121.185 c -4.179,-2.412 -8.927,-3.688 -13.731,-3.688 -9.804,0 -18.937,5.27 -23.834,13.753 -3.673,6.361 -4.648,13.771 -2.747,20.867 1.901,7.096 6.451,13.025 12.812,16.698 4.179,2.413 8.927,3.688 13.732,3.688 9.803,0 18.937,-5.27 23.834,-13.753 3.673,-6.361 4.648,-13.772 2.747,-20.867 -1.902,-7.096 -6.452,-13.027 -12.813,-16.698 z m -2.924,30.065 c -2.227,3.857 -6.382,6.253 -10.844,6.253 -2.175,0 -4.33,-0.58 -6.231,-1.678 -2.892,-1.669 -4.959,-4.365 -5.824,-7.59 -0.864,-3.226 -0.421,-6.594 1.249,-9.485 2.227,-3.857 6.382,-6.253 10.844,-6.253 2.175,0 4.33,0.58 6.231,1.678 2.892,1.67 4.96,4.365 5.824,7.59 0.863,3.225 0.42,6.593 -1.249,9.485 z"
   id="path7" /> <path
   d="m 170.029,192.497 c -4.805,0 -9.553,1.274 -13.731,3.688 -6.361,3.673 -10.912,9.603 -12.813,16.698 -1.901,7.096 -0.926,14.506 2.747,20.867 4.898,8.483 14.031,13.753 23.834,13.753 4.805,0 9.553,-1.274 13.731,-3.688 6.361,-3.672 10.912,-9.603 12.813,-16.698 1.901,-7.095 0.926,-14.506 -2.747,-20.867 -4.897,-8.483 -14.03,-13.753 -23.834,-13.753 z m 12.093,30.738 c -0.864,3.225 -2.933,5.92 -5.825,7.59 -1.901,1.098 -4.056,1.678 -6.23,1.678 -4.462,0 -8.617,-2.396 -10.844,-6.253 -1.669,-2.892 -2.113,-6.26 -1.249,-9.485 0.864,-3.225 2.932,-5.921 5.824,-7.59 1.901,-1.098 4.056,-1.678 6.231,-1.678 4.462,0 8.617,2.396 10.844,6.253 1.67,2.892 2.113,6.26 1.249,9.485 z"
   id="path8" /> <path
   d="m 235,230 c -15.164,0 -27.5,12.337 -27.5,27.5 0,15.163 12.336,27.5 27.5,27.5 15.164,0 27.5,-12.337 27.5,-27.5 0,-15.163 -12.336,-27.5 -27.5,-27.5 z m 0,40 c -6.893,0 -12.5,-5.607 -12.5,-12.5 0,-6.893 5.607,-12.5 12.5,-12.5 6.893,0 12.5,5.607 12.5,12.5 0,6.893 -5.607,12.5 -12.5,12.5 z"
   id="path9" /> <path
   d="m 313.703,196.185 c -4.179,-2.413 -8.927,-3.688 -13.732,-3.688 -9.803,0 -18.937,5.27 -23.834,13.753 -3.673,6.361 -4.648,13.772 -2.747,20.867 1.901,7.096 6.452,13.026 12.813,16.698 4.179,2.413 8.927,3.688 13.731,3.688 9.804,0 18.937,-5.27 23.834,-13.753 3.673,-6.361 4.648,-13.771 2.747,-20.867 -1.901,-7.096 -6.452,-13.026 -12.812,-16.698 z m -2.926,30.065 c -2.227,3.857 -6.382,6.253 -10.844,6.253 -2.175,0 -4.33,-0.58 -6.231,-1.678 -2.892,-1.67 -4.96,-4.365 -5.824,-7.59 -0.864,-3.226 -0.421,-6.594 1.249,-9.485 2.227,-3.857 6.382,-6.253 10.844,-6.253 2.175,0 4.33,0.58 6.231,1.678 2.892,1.669 4.959,4.365 5.824,7.59 0.864,3.225 0.421,6.593 -1.249,9.485 z"
   id="path10-4" /> <path
   d="m 299.971,172.503 c 4.805,0 9.553,-1.274 13.731,-3.688 6.361,-3.673 10.912,-9.603 12.813,-16.698 1.901,-7.096 0.926,-14.506 -2.747,-20.867 -4.898,-8.483 -14.031,-13.753 -23.834,-13.753 -4.805,0 -9.553,1.275 -13.731,3.688 -6.361,3.672 -10.912,9.603 -12.813,16.698 -1.901,7.095 -0.926,14.506 2.747,20.867 4.897,8.483 14.03,13.753 23.834,13.753 z m -12.093,-30.738 c 0.864,-3.225 2.933,-5.92 5.825,-7.59 1.901,-1.098 4.056,-1.678 6.23,-1.678 4.462,0 8.617,2.396 10.844,6.253 1.669,2.892 2.113,6.26 1.249,9.485 -0.864,3.225 -2.932,5.921 -5.824,7.59 -1.901,1.098 -4.056,1.678 -6.231,1.678 -4.462,0 -8.617,-2.396 -10.844,-6.253 -1.67,-2.892 -2.113,-6.26 -1.249,-9.485 z"
   id="path11-3" /> </g> </g><g
   id="g5">
	
	
	
</g><path
   sodipodi:type="star"
   style="fill:#ff8c69;stroke:#3f0000;stroke-width:3.84"
   id="path14"
   inkscape:flatsided="true"
   sodipodi:sides="3"
   sodipodi:cx="203.02428"
   sodipodi:cy="26.635838"
   sodipodi:r1="65.725731"
   sodipodi:r2="32.862865"
   sodipodi:arg1="-0.027020449"
   sodipodi:arg2="1.0201771"
   inkscape:rounded="0.05"
   inkscape:randomized="0"
   d="m 268.72602,24.860115 c 0.15378,5.689937 -92.01027,62.274749 -97.01479,59.562959 -5.00452,-2.71179 -7.92638,-110.820602 -3.07564,-113.79875 4.85074,-2.978148 99.93664,48.545853 100.09043,54.235791 z"
   inkscape:transform-center-x="-12.467192"
   inkscape:transform-center-y="0.061891972"
   transform="matrix(0.85472744,0.02118462,-0.02118462,0.85472744,148.18663,40.750272)" /><path
   sodipodi:type="star"
   style="fill:#ff8c69;stroke:#3f0000;stroke-width:3.84"
   id="path14-1"
   inkscape:flatsided="true"
   sodipodi:sides="3"
   sodipodi:cx="203.02428"
   sodipodi:cy="26.635838"
   sodipodi:r1="65.725731"
   sodipodi:r2="32.862865"
   sodipodi:arg1="-0.027020449"
   sodipodi:arg2="1.0201771"
   inkscape:rounded="0.05"
   inkscape:randomized="0"
   d="m 268.72602,24.860115 c 0.15378,5.689937 -92.01027,62.274749 -97.01479,59.562959 -5.00452,-2.71179 -7.92638,-110.820602 -3.07564,-113.79875 4.85074,-2.978148 99.93664,48.545853 100.09043,54.235791 z"
   inkscape:transform-center-x="-12.467192"
   inkscape:transform-center-y="0.061891972"
   transform="matrix(0.85472744,0.02118462,-0.02118462,0.85472744,253.74306,40.750272)" /><path
   sodipodi:type="star"
   style="fill:#697aff;fill-opacity:1;stroke:#00013f;stroke-width:3.84;stroke-opacity:1"
   id="path13"
   inkscape:flatsided="true"
   sodipodi:sides="3"
   sodipodi:cx="255.09979"
   sodipodi:cy="277.20847"
   sodipodi:r1="70.342155"
   sodipodi:r2="35.171078"
   sodipodi:arg1="-0.52359878"
   sodipodi:arg2="0.52359878"
   inkscape:rounded="0.01"
   inkscape:randomized="0"
   d="m 316.01789,242.03739 c 0.60918,1.05513 -59.69974,105.51323 -60.9181,105.51323 -1.21836,0 -61.52727,-104.4581 -60.91809,-105.51323 0.60918,-1.05513 121.227,-1.05513 121.83619,0 z"
   inkscape:transform-center-y="10.305617"
   transform="matrix(0.66031341,0,0,0.66031341,87.554186,271.20347)"
   inkscape:transform-center-x="1.6283899e-06" /><path
   sodipodi:type="star"
   style="fill:#697aff;fill-opacity:1;stroke:#00013f;stroke-width:3.84;stroke-opacity:1"
   id="path13-4"
   inkscape:flatsided="true"
   sodipodi:sides="3"
   sodipodi:cx="255.09979"
   sodipodi:cy="277.20847"
   sodipodi:r1="70.342155"
   sodipodi:r2="35.171078"
   sodipodi:arg1="-0.52359878"
   sodipodi:arg2="0.52359878"
   inkscape:rounded="0.01"
   inkscape:randomized="0"
   d="m 316.01789,242.03739 c 0.60918,1.05513 -59.69974,105.51323 -60.9181,105.51323 -1.21836,0 -61.52727,-104.4581 -60.91809,-105.51323 0.60918,-1.05513 121.227,-1.05513 121.83619,0 z"
   inkscape:transform-center-y="10.305617"
   transform="matrix(0.66031341,0,0,0.66031341,87.554186,195.31963)"
   inkscape:transform-center-x="1.6283899e-06" /></svg>
