<!DOCTYPE svg PUBLIC "-//W3C//DTD SVG 1.1//EN" "http://www.w3.org/Graphics/SVG/1.1/DTD/svg11.dtd">
<!-- Uploaded to: SVG Repo, www.svgrepo.com, Transformed by: SVG Repo Mixer Tools -->
<svg fill="#000000" height="800px" width="800px" version="1.1" id="Capa_1" xmlns="http://www.w3.org/2000/svg" xmlns:xlink="http://www.w3.org/1999/xlink" viewBox="0 0 470 470" xml:space="preserve">
<g id="SVGRepo_bgCarrier" stroke-width="0"/>
<g id="SVGRepo_tracerCarrier" stroke-linecap="round" stroke-linejoin="round"/>
<g id="SVGRepo_iconCarrier"> <g> <path d="M410,0H60c-4.142,0-7.5,3.357-7.5,7.5v455c0,4.143,3.358,7.5,7.5,7.5h350c4.142,0,7.5-3.357,7.5-7.5V7.5 C417.5,3.357,414.142,0,410,0z M67.5,455v-90H350c4.142,0,7.5-3.357,7.5-7.5s-3.358-7.5-7.5-7.5H67.5V15h335v335H380 c-4.142,0-7.5,3.357-7.5,7.5s3.358,7.5,7.5,7.5h22.5v90H67.5z"/> <path d="M235,40c-78.575,0-142.5,63.925-142.5,142.5S156.425,325,235,325s142.5-63.925,142.5-142.5S313.575,40,235,40z M235,310 c-70.304,0-127.5-57.196-127.5-127.5S164.696,55,235,55s127.5,57.196,127.5,127.5S305.304,310,235,310z"/> <path d="M347.5,380c-16.542,0-30,13.458-30,30s13.458,30,30,30s30-13.458,30-30S364.042,380,347.5,380z M347.5,425 c-8.271,0-15-6.729-15-15s6.729-15,15-15s15,6.729,15,15S355.771,425,347.5,425z"/> <path d="M122.5,380c-16.542,0-30,13.458-30,30s13.458,30,30,30s30-13.458,30-30S139.042,380,122.5,380z M122.5,425 c-8.271,0-15-6.729-15-15s6.729-15,15-15s15,6.729,15,15S130.771,425,122.5,425z"/> <path d="M285,402.5H185c-4.142,0-7.5,3.357-7.5,7.5s3.358,7.5,7.5,7.5h100c4.142,0,7.5-3.357,7.5-7.5S289.142,402.5,285,402.5z"/> <path d="M235,80c-15.164,0-27.5,12.337-27.5,27.5S219.836,135,235,135s27.5-12.337,27.5-27.5S250.164,80,235,80z M235,120 c-6.893,0-12.5-5.607-12.5-12.5S228.107,95,235,95s12.5,5.607,12.5,12.5S241.893,120,235,120z"/> <path d="M183.798,121.185c-4.179-2.412-8.927-3.688-13.731-3.688c-9.804,0-18.937,5.27-23.834,13.753 c-3.673,6.361-4.648,13.771-2.747,20.867c1.901,7.096,6.451,13.025,12.812,16.698c4.179,2.413,8.927,3.688,13.732,3.688 c9.803,0,18.937-5.27,23.834-13.753c3.673-6.361,4.648-13.772,2.747-20.867C194.709,130.787,190.159,124.856,183.798,121.185z M180.874,151.25c-2.227,3.857-6.382,6.253-10.844,6.253c-2.175,0-4.33-0.58-6.231-1.678c-2.892-1.669-4.959-4.365-5.824-7.59 c-0.864-3.226-0.421-6.594,1.249-9.485c2.227-3.857,6.382-6.253,10.844-6.253c2.175,0,4.33,0.58,6.231,1.678 c2.892,1.67,4.96,4.365,5.824,7.59C182.986,144.99,182.543,148.358,180.874,151.25z"/> <path d="M170.029,192.497c-4.805,0-9.553,1.274-13.731,3.688c-6.361,3.673-10.912,9.603-12.813,16.698 c-1.901,7.096-0.926,14.506,2.747,20.867c4.898,8.483,14.031,13.753,23.834,13.753c4.805,0,9.553-1.274,13.731-3.688 c6.361-3.672,10.912-9.603,12.813-16.698c1.901-7.095,0.926-14.506-2.747-20.867C188.966,197.767,179.833,192.497,170.029,192.497z M182.122,223.235c-0.864,3.225-2.933,5.92-5.825,7.59c-1.901,1.098-4.056,1.678-6.23,1.678c-4.462,0-8.617-2.396-10.844-6.253 c-1.669-2.892-2.113-6.26-1.249-9.485c0.864-3.225,2.932-5.921,5.824-7.59c1.901-1.098,4.056-1.678,6.231-1.678 c4.462,0,8.617,2.396,10.844,6.253C182.543,216.642,182.986,220.01,182.122,223.235z"/> <path d="M235,230c-15.164,0-27.5,12.337-27.5,27.5S219.836,285,235,285s27.5-12.337,27.5-27.5S250.164,230,235,230z M235,270 c-6.893,0-12.5-5.607-12.5-12.5S228.107,245,235,245s12.5,5.607,12.5,12.5S241.893,270,235,270z"/> <path d="M313.703,196.185c-4.179-2.413-8.927-3.688-13.732-3.688c-9.803,0-18.937,5.27-23.834,13.753 c-3.673,6.361-4.648,13.772-2.747,20.867c1.901,7.096,6.452,13.026,12.813,16.698c4.179,2.413,8.927,3.688,13.731,3.688 c9.804,0,18.937-5.27,23.834-13.753c3.673-6.361,4.648-13.771,2.747-20.867C324.614,205.787,320.063,199.857,313.703,196.185z M310.777,226.25c-2.227,3.857-6.382,6.253-10.844,6.253c-2.175,0-4.33-0.58-6.231-1.678c-2.892-1.67-4.96-4.365-5.824-7.59 c-0.864-3.226-0.421-6.594,1.249-9.485c2.227-3.857,6.382-6.253,10.844-6.253c2.175,0,4.33,0.58,6.231,1.678 c2.892,1.669,4.959,4.365,5.824,7.59C312.89,219.99,312.447,223.358,310.777,226.25z"/> <path d="M299.971,172.503c4.805,0,9.553-1.274,13.731-3.688c6.361-3.673,10.912-9.603,12.813-16.698 c1.901-7.096,0.926-14.506-2.747-20.867c-4.898-8.483-14.031-13.753-23.834-13.753c-4.805,0-9.553,1.275-13.731,3.688 c-6.361,3.672-10.912,9.603-12.813,16.698c-1.901,7.095-0.926,14.506,2.747,20.867 C281.034,167.233,290.167,172.503,299.971,172.503z M287.878,141.765c0.864-3.225,2.933-5.92,5.825-7.59 c1.901-1.098,4.056-1.678,6.23-1.678c4.462,0,8.617,2.396,10.844,6.253c1.669,2.892,2.113,6.26,1.249,9.485 c-0.864,3.225-2.932,5.921-5.824,7.59c-1.901,1.098-4.056,1.678-6.231,1.678c-4.462,0-8.617-2.396-10.844-6.253 C287.457,148.358,287.014,144.99,287.878,141.765z"/> </g> </g>
</svg>