<?xml version="1.0" encoding="UTF-8" standalone="no"?>
<!-- Uploaded to: SVG Repo, www.svgrepo.com, Generator: SVG Repo Mixer Tools -->

<svg
   fill="#000000"
   width="100"
   height="100"
   viewBox="0 0 16 16"
   data-name="Layer 1"
   id="Layer_1"
   version="1.1"
   sodipodi:docname="converter red.svg"
   inkscape:version="1.3.2 (091e20e, 2023-11-25, custom)"
   xmlns:inkscape="http://www.inkscape.org/namespaces/inkscape"
   xmlns:sodipodi="http://sodipodi.sourceforge.net/DTD/sodipodi-0.dtd"
   xmlns="http://www.w3.org/2000/svg"
   xmlns:svg="http://www.w3.org/2000/svg">
  <defs
     id="defs104" />
  <sodipodi:namedview
     id="namedview104"
     pagecolor="#ffffff"
     bordercolor="#111111"
     borderopacity="1"
     inkscape:showpageshadow="0"
     inkscape:pageopacity="0"
     inkscape:pagecheckerboard="1"
     inkscape:deskcolor="#d1d1d1"
     inkscape:zoom="10.359114"
     inkscape:cx="57.244276"
     inkscape:cy="54.493076"
     inkscape:window-width="3200"
     inkscape:window-height="1721"
     inkscape:window-x="2391"
     inkscape:window-y="-9"
     inkscape:window-maximized="1"
     inkscape:current-layer="Layer_1" />
  <title
     id="title1" />
  <rect
     style="fill:#fba19a;stroke:#000000;stroke-width:0.32;fill-opacity:1;stroke-opacity:1;stroke-dasharray:none;stroke-linejoin:round"
     id="rect104"
     width="15.091201"
     height="15.091201"
     x="0.45439976"
     y="0.45439976" />
  <g
     id="g104"
     transform="matrix(0.11008859,0,0,0.11413523,0.75890808,0.8972941)">
    <path
       d="M 51.54,61.5 A 12.46,12.46 0 1 0 64,49.05 12.47,12.47 0 0 0 51.54,61.5 Z m 22.92,0 A 10.46,10.46 0 1 1 64,51.05 10.47,10.47 0 0 1 74.46,61.5 Z"
       id="path1" />
    <path
       d="m 14.2,31.49 -0.06,0.12 a 1,1 0 0 0 0.34,1.39 1,1 0 0 0 0.51,0.14 1,1 0 0 0 0.86,-0.48 v 0 a 7.64,7.64 0 0 0 9.33,-11.69 v 0 A 1.0008621,1.0008621 0 0 0 23.8,19.52 l -0.09,0.09 A 7.63,7.63 0 0 0 14.2,31.49 Z m 5.1,-11.33 a 5.65,5.65 0 1 1 -5.65,5.65 5.65,5.65 0 0 1 5.65,-5.65 z"
       id="path2" />
    <path
       d="m 110.16,78.76 a 7.64,7.64 0 0 0 -4.31,-6.86 c 0,-0.05 0,-0.1 0,-0.15 a 1.0004624,1.0004624 0 0 0 -1.94,-0.49 7.56,7.56 0 0 0 -1.44,-0.14 7.63,7.63 0 0 0 -4.65,13.7 1.034698,1.034698 0 0 0 1.7,1.18 l 0.08,-0.12 a 7.64,7.64 0 0 0 10.56,-7.07 z m -7.65,5.65 a 5.65,5.65 0 1 1 5.65,-5.65 5.66,5.66 0 0 1 -5.65,5.65 z"
       id="path3" />
    <path
       d="M 106.12,30.46 A 7.56,7.56 0 0 0 110,29.37 v 0 a 1,1 0 0 0 0.82,0.43 1,1 0 0 0 0.57,-0.18 1,1 0 0 0 0.24,-1.39 l -0.07,-0.11 A 7.64,7.64 0 0 0 101.28,16.9 l -0.1,-0.08 a 1.0012492,1.0012492 0 0 0 -1.28,1.54 v 0 a 7.56,7.56 0 0 0 -1.43,4.44 7.65,7.65 0 0 0 7.65,7.66 z m 5.65,-7.65 a 5.65,5.65 0 1 1 -5.65,-5.65 5.66,5.66 0 0 1 5.65,5.65 z"
       id="path4" />
    <path
       d="m 80.89,116.1 a 1,1 0 0 0 1,0.69 1.12,1.12 0 0 0 0.31,-0.05 c 0.66,-0.22 1.31,-0.44 1.95,-0.68 a 1,1 0 0 0 0.6,-1.28 1,1 0 0 0 -1.29,-0.6 c -0.62,0.23 -1.25,0.45 -1.88,0.66 a 1,1 0 0 0 -0.69,1.26 z"
       id="path5" />
    <path
       d="m 118.1,46.45 c 0.17,0.63 0.34,1.28 0.5,1.92 a 1,1 0 0 0 1,0.77 h 0.23 a 1,1 0 0 0 0.74,-1.2 c -0.16,-0.67 -0.33,-1.34 -0.52,-2 a 1,1 0 1 0 -1.92,0.54 z"
       id="path6" />
    <path
       d="m 119.23,77.22 a 1,1 0 0 0 1,-0.74 c 0.18,-0.66 0.35,-1.33 0.5,-2 a 1.025,1.025 0 0 0 -2,-0.45 c -0.15,0.65 -0.31,1.3 -0.48,1.94 a 1,1 0 0 0 0.71,1.22 1.15,1.15 0 0 0 0.27,0.03 z"
       id="path7" />
    <path
       d="m 119.54,53.26 c 0.1,0.65 0.18,1.31 0.26,2 a 1,1 0 0 0 1,0.89 h 0.11 a 1,1 0 0 0 0.88,-1.11 c -0.07,-0.68 -0.16,-1.36 -0.26,-2 a 1.0104578,1.0104578 0 1 0 -2,0.29 z"
       id="path8" />
    <path
       d="m 118.05,80.11 a 1,1 0 0 0 -1.28,0.6 c -0.23,0.62 -0.47,1.24 -0.71,1.85 a 1,1 0 0 0 0.55,1.31 1,1 0 0 0 0.37,0.07 1,1 0 0 0 0.93,-0.63 c 0.26,-0.63 0.5,-1.27 0.74,-1.92 a 1,1 0 0 0 -0.6,-1.28 z"
       id="path9" />
    <path
       d="m 116.55,41.72 a 1,1 0 0 0 0.93,0.65 1.15,1.15 0 0 0 0.36,-0.07 1,1 0 0 0 0.58,-1.29 c -0.24,-0.64 -0.5,-1.28 -0.76,-1.91 a 1.0019232,1.0019232 0 0 0 -1.85,0.77 c 0.26,0.61 0.5,1.23 0.74,1.85 z"
       id="path10" />
    <path
       d="m 75,118.58 h 0.19 c 0.68,-0.13 1.35,-0.28 2,-0.43 a 1,1 0 0 0 0.75,-1.2 1,1 0 0 0 -1.2,-0.75 c -0.65,0.15 -1.3,0.29 -1.95,0.41 a 1.0045024,1.0045024 0 0 0 0.19,2 z"
       id="path11" />
    <path
       d="m 91.13,111.8 a 1,1 0 0 0 -1.35,-0.43 c -0.58,0.31 -1.18,0.6 -1.78,0.89 a 1,1 0 0 0 0.43,1.9 1,1 0 0 0 0.42,-0.09 c 0.63,-0.3 1.24,-0.61 1.86,-0.92 a 1,1 0 0 0 0.42,-1.35 z"
       id="path12" />
    <path
       d="m 114,87.09 c -0.31,0.59 -0.62,1.17 -0.94,1.75 a 1,1 0 0 0 0.38,1.36 1.09,1.09 0 0 0 0.49,0.13 1,1 0 0 0 0.87,-0.52 c 0.34,-0.59 0.66,-1.2 1,-1.81 a 1,1 0 0 0 -0.43,-1.35 1,1 0 0 0 -1.37,0.44 z"
       id="path13" />
    <path
       d="m 113.1,32.26 a 1,1 0 0 0 -0.37,1.36 c 0.33,0.58 0.65,1.16 1,1.75 a 1,1 0 0 0 0.88,0.53 1.12,1.12 0 0 0 0.47,-0.11 1,1 0 0 0 0.42,-1.35 c -0.32,-0.61 -0.66,-1.22 -1,-1.81 a 1,1 0 0 0 -1.4,-0.37 z"
       id="path14" />
    <path
       d="m 121.61,69.41 c 0.09,-0.68 0.17,-1.36 0.24,-2 a 1.0049876,1.0049876 0 0 0 -2,-0.2 c -0.07,0.67 -0.14,1.32 -0.23,2 a 1,1 0 0 0 0.85,1.13 h 0.14 a 1,1 0 0 0 1,-0.93 z"
       id="path15" />
    <path
       d="m 110.09,96.28 a 1,1 0 0 0 0.8,-0.4 c 0.41,-0.56 0.81,-1.12 1.19,-1.69 a 1,1 0 0 0 -1.65,-1.12 c -0.37,0.55 -0.76,1.09 -1.15,1.62 a 1,1 0 0 0 0.21,1.4 1,1 0 0 0 0.6,0.19 z"
       id="path16" />
    <path
       d="m 94.63,110.73 a 1,1 0 0 0 0.54,-0.15 c 0.58,-0.37 1.16,-0.75 1.72,-1.14 a 1,1 0 1 0 -1.13,-1.65 c -0.55,0.38 -1.1,0.74 -1.66,1.1 a 1,1 0 0 0 0.53,1.84 z"
       id="path17" />
    <path
       d="m 120.13,60.2 c 0,0.43 0,0.87 0,1.3 v 0.69 a 1,1 0 0 0 1,1 v 0 a 1,1 0 0 0 1,-1 V 61.5 c 0,-0.45 0,-0.9 0,-1.35 a 1,1 0 0 0 -1,-1 1,1 0 0 0 -1,1.05 z"
       id="path18" />
    <path
       d="m 106.16,98.57 c -0.44,0.5 -0.88,1 -1.34,1.47 a 1,1 0 0 0 0,1.41 1,1 0 0 0 0.69,0.28 1,1 0 0 0 0.72,-0.32 c 0.47,-0.5 0.94,-1 1.39,-1.52 a 1,1 0 0 0 -1.5,-1.32 z"
       id="path19" />
    <path
       d="m 101.25,103.5 c -0.5,0.44 -1,0.87 -1.52,1.3 a 1,1 0 0 0 0.64,1.77 1,1 0 0 0 0.64,-0.23 c 0.53,-0.44 1,-0.89 1.56,-1.34 a 1,1 0 0 0 0.09,-1.42 1,1 0 0 0 -1.41,-0.08 z"
       id="path20" />
    <path
       d="m 18.85,97.52 a 1,1 0 0 0 0.79,-1.61 c -0.4,-0.51 -0.78,-1 -1.16,-1.54 a 1,1 0 0 0 -1.39,-0.23 1,1 0 0 0 -0.23,1.4 q 0.59,0.81 1.2,1.59 a 1,1 0 0 0 0.79,0.39 z"
       id="path21" />
    <path
       d="m 26.31,105.76 c 0.5,0.43 1,0.85 1.54,1.27 a 1,1 0 0 0 0.62,0.22 1,1 0 0 0 0.78,-0.38 1,1 0 0 0 -0.16,-1.41 c -0.5,-0.4 -1,-0.8 -1.48,-1.22 a 1.00005,1.00005 0 1 0 -1.3,1.52 z"
       id="path22" />
    <path
       d="m 50.24,117 a 1,1 0 0 0 0.75,1.2 c 0.65,0.15 1.3,0.28 1.95,0.41 h 0.19 a 1.0045024,1.0045024 0 0 0 0.19,-2 c -0.63,-0.12 -1.26,-0.25 -1.88,-0.39 a 1,1 0 0 0 -1.2,0.78 z"
       id="path23" />
    <path
       d="m 21.28,100.93 q 0.67,0.73 1.38,1.44 a 1,1 0 0 0 0.71,0.3 1,1 0 0 0 0.7,-0.29 1,1 0 0 0 0,-1.41 c -0.45,-0.46 -0.89,-0.92 -1.33,-1.39 a 1,1 0 0 0 -1.47,1.35 z"
       id="path24" />
    <path
       d="m 43.7,114.93 a 1,1 0 0 0 0.6,1.28 c 0.63,0.22 1.26,0.44 1.89,0.64 a 1.06,1.06 0 0 0 0.31,0.05 1.0111874,1.0111874 0 0 0 0.3,-2 L 45,114.33 a 1,1 0 0 0 -1.3,0.6 z"
       id="path25" />
    <path
       d="m 37.9,113.46 1.79,0.86 a 1.06,1.06 0 0 0 0.42,0.09 1,1 0 0 0 0.91,-0.58 1,1 0 0 0 -0.49,-1.33 c -0.58,-0.26 -1.16,-0.54 -1.73,-0.83 a 1,1 0 0 0 -1.34,0.44 1,1 0 0 0 0.44,1.35 z"
       id="path26" />
    <path
       d="m 8.43,78.67 a 1,1 0 0 0 1,0.7 1,1 0 0 0 0.3,0 1,1 0 0 0 0.66,-1.25 C 10.2,77.51 10.02,76.89 9.85,76.27 A 1,1 0 0 0 7.92,76.79 C 8.05,77.4 8.24,78 8.43,78.67 Z"
       id="path27" />
    <path
       d="m 10.89,85.2 a 1,1 0 0 0 0.92,0.59 1,1 0 0 0 0.4,-0.09 1,1 0 0 0 0.51,-1.32 C 12.46,83.8 12.2,83.2 11.96,82.61 a 1,1 0 1 0 -1.85,0.75 c 0.25,0.64 0.51,1.23 0.78,1.84 z"
       id="path28" />
    <path
       d="m 7.6,52.24 h 0.18 a 1,1 0 0 0 1,-0.82 c 0.11,-0.63 0.24,-1.26 0.38,-1.89 a 1.0218121,1.0218121 0 0 0 -2,-0.42 c -0.14,0.64 -0.27,1.3 -0.39,1.95 a 1,1 0 0 0 0.83,1.18 z"
       id="path29" />
    <path
       d="m 31.59,108.57 a 1,1 0 0 0 0.28,1.39 l 1.68,1.04 a 1,1 0 0 0 1.38,-0.33 1,1 0 0 0 -0.33,-1.37 c -0.55,-0.34 -1.09,-0.68 -1.62,-1 a 1,1 0 0 0 -1.39,0.27 z"
       id="path30" />
    <path
       d="M 8.75,71.54 C 8.64,70.91 8.54,70.28 8.44,69.64 a 1.0104578,1.0104578 0 0 0 -2,0.29 c 0.1,0.66 0.21,1.31 0.32,2 a 1,1 0 0 0 1,0.82 h 0.18 a 1,1 0 0 0 0.81,-1.21 z"
       id="path31" />
    <path
       d="m 14.87,88.69 a 1.0077822,1.0077822 0 1 0 -1.75,1 c 0.32,0.58 0.66,1.15 1,1.72 a 1,1 0 0 0 0.86,0.49 1.06,1.06 0 0 0 0.51,-0.14 1,1 0 0 0 0.34,-1.38 C 15.5,89.8 15.18,89.25 14.87,88.69 Z"
       id="path32" />
    <path
       d="m 9.11,45.56 a 1,1 0 0 0 0.29,0 1,1 0 0 0 1,-0.71 Q 10.69,43.94 11,43.02 A 1,1 0 1 0 9.11,42.37 c -0.22,0.62 -0.42,1.25 -0.62,1.89 a 1,1 0 0 0 0.62,1.3 z"
       id="path33" />
    <path
       d="m 11.41,39.11 a 1,1 0 0 0 0.41,0.08 1,1 0 0 0 0.92,-0.59 q 0.39,-0.87 0.81,-1.74 A 1,1 0 1 0 11.76,36 c -0.3,0.6 -0.58,1.2 -0.85,1.81 a 1,1 0 0 0 0.5,1.3 z"
       id="path34" />
    <path
       d="m 7,65.92 v 0 a 1,1 0 0 0 0.94,-1 c 0,-0.64 -0.07,-1.28 -0.08,-1.93 a 1,1 0 0 0 -1,-1 1,1 0 0 0 -1,1 c 0,0.67 0,1.33 0.08,2 A 1,1 0 0 0 7,65.92 Z"
       id="path35" />
    <path
       d="M 6.9,59.06 H 7 a 1,1 0 0 0 1,-0.94 c 0,-0.64 0.09,-1.28 0.15,-1.91 a 1.0045024,1.0045024 0 0 0 -2,-0.19 Q 6,57 6,58 a 1,1 0 0 0 0.9,1.06 z"
       id="path36" />
    <path
       d="m 58.14,117.33 a 1.0054974,1.0054974 0 0 0 -0.21,2 h 0.12 a 6,6 0 0 0 11.9,0 h 0.12 a 1.0054974,1.0054974 0 1 0 -0.21,-2 v 0 a 6,6 0 0 0 -11.69,0 z M 64,114.65 a 4,4 0 0 1 4,3.83 v 0 c 0,0 0,0.07 0,0.11 a 4,4 0 0 1 -8,0 0.52,0.52 0 0 1 0,-0.11 v 0 a 4,4 0 0 1 4,-3.83 z"
       id="path37" />
    <path
       d="m 47.07,7.91 a 1,1 0 0 0 0.3,0 C 48,7.71 48.64,7.52 49.28,7.35 A 1,1 0 0 0 48.76,5.42 C 48.09,5.6 47.43,5.79 46.76,6 a 1.0111874,1.0111874 0 0 0 0.3,2 z"
       id="path38" />
    <path
       d="m 34.16,13.77 a 1,1 0 0 0 0.52,-0.15 c 0.57,-0.35 1.14,-0.69 1.72,-1 a 1,1 0 0 0 0.38,-1.37 1,1 0 0 0 -1.36,-0.38 c -0.61,0.34 -1.2,0.69 -1.79,1.05 a 1,1 0 0 0 -0.32,1.38 1,1 0 0 0 0.85,0.47 z"
       id="path39" />
    <path
       d="m 40.43,10.44 a 1,1 0 0 0 0.41,-0.09 c 0.61,-0.28 1.22,-0.54 1.83,-0.8 A 1,1 0 0 0 43.22,8.25 1,1 0 0 0 41.91,7.7 c -0.63,0.27 -1.27,0.54 -1.89,0.82 a 1,1 0 0 0 0.41,1.92 z"
       id="path40" />
    <path
       d="m 54,6.24 h 0.18 c 0.65,-0.11 1.31,-0.22 2,-0.31 a 1.0097524,1.0097524 0 0 0 -0.28,-2 c -0.68,0.09 -1.37,0.2 -2,0.32 a 1.003606,1.003606 0 0 0 0.17,2 z"
       id="path41" />
    <path
       d="m 28.35,17.85 a 1,1 0 0 0 0.62,-0.22 l 1.58,-1.22 a 1,1 0 1 0 -1.19,-1.6 c -0.55,0.41 -1.1,0.83 -1.64,1.26 a 1,1 0 0 0 0.63,1.78 z"
       id="path42" />
    <path
       d="m 88.19,10.83 c 0.6,0.29 1.19,0.59 1.78,0.9 A 1.11,1.11 0 0 0 90.43,11.84 1,1 0 0 0 90.9,10 C 90.29,9.68 89.67,9.37 89.05,9.07 a 1,1 0 1 0 -0.86,1.8 z"
       id="path43" />
    <path
       d="m 81.72,8.22 c 0.63,0.21 1.26,0.43 1.88,0.66 A 0.84,0.84 0 0 0 84,9 1.0111874,1.0111874 0 0 0 84.3,7 q -1,-0.36 -2,-0.69 a 1.0008621,1.0008621 0 0 0 -0.63,1.9 z"
       id="path44" />
    <path
       d="m 61,5.44 v 0 c 0.66,0 1.33,0 2,-0.06 a 1,1 0 0 0 0,-2 c -0.7,0 -1.38,0 -2.07,0.07 a 1.0003125,1.0003125 0 0 0 0.05,2 z"
       id="path45" />
    <path
       d="m 75,6.43 c 0.65,0.13 1.3,0.28 1.94,0.43 a 1,1 0 0 0 0.24,0 1.0060318,1.0060318 0 0 0 0.22,-2 C 76.74,4.7 76.06,4.56 75.4,4.42 A 1,1 0 0 0 74.22,5.21 1,1 0 0 0 75,6.43 Z"
       id="path46" />
    <path
       d="m 68.06,5.5 c 0.67,0 1.33,0.11 2,0.18 h 0.11 a 1.0012492,1.0012492 0 0 0 0.1,-2 C 69.59,3.61 68.91,3.55 68.22,3.5 a 1.0028086,1.0028086 0 0 0 -0.15,2 z"
       id="path47" />
    <path
       d="m 94.28,14.23 c 0.56,0.36 1.11,0.73 1.66,1.11 a 1,1 0 0 0 0.57,0.18 1,1 0 0 0 0.57,-1.82 c -0.57,-0.39 -1.14,-0.78 -1.72,-1.15 a 1,1 0 0 0 -1.38,0.3 1,1 0 0 0 0.3,1.38 z"
       id="path48" />
    <path
       d="m 58,20.81 h 0.14 a 6,6 0 0 0 11.64,0 H 70 a 1.002447,1.002447 0 0 0 0.14,-2 H 70.01 A 6.0050021,6.0050021 0 0 0 58,18.8 h -0.13 a 1.002447,1.002447 0 0 0 0.14,2 z m 6,-5.43 a 4,4 0 0 1 4,4 c 0,0.06 0,0.11 0,0.16 v 0 a 4,4 0 0 1 -7.94,0 c 0,0 0,0 0,0 0,-0.05 0,-0.1 0,-0.16 a 4,4 0 0 1 3.94,-4 z"
       id="path49" />
    <path
       d="M 28.72,85.52 A 1,1 0 0 0 29.26,85.36 1,1 0 0 0 29.55,84 c -0.35,-0.55 -0.7,-1.11 -1,-1.68 a 1,1 0 0 0 -1.73,1 c 0.35,0.59 0.71,1.17 1.09,1.75 a 1,1 0 0 0 0.81,0.45 z"
       id="path50" />
    <path
       d="m 57.57,102.12 c -0.65,-0.1 -1.29,-0.21 -1.93,-0.35 a 1.0198039,1.0198039 0 0 0 -0.4,2 c 0.67,0.14 1.34,0.26 2,0.37 h 0.16 a 1.0028086,1.0028086 0 0 0 0.15,-2 z"
       id="path51" />
    <path
       d="m 21,64.79 a 1,1 0 0 0 1,0.92 h 0.07 A 1,1 0 0 0 23,64.64 c 0,-0.65 -0.08,-1.31 -0.1,-2 a 1,1 0 0 0 -1,-1 1,1 0 0 0 -1,1 c 0.01,0.78 0.1,1.47 0.1,2.15 z"
       id="path52" />
    <path
       d="m 94.89,91.57 c 0.48,-0.49 1,-1 1.4,-1.51 A 1,1 0 1 0 94.8,88.74 c -0.44,0.49 -0.88,1 -1.34,1.44 a 1,1 0 0 0 0,1.41 1,1 0 0 0 0.7,0.29 1,1 0 0 0 0.73,-0.31 z"
       id="path53" />
    <path
       d="M 38.23,95.82 A 1,1 0 0 0 38.84,94 c -0.51,-0.4 -1,-0.81 -1.52,-1.24 a 1,1 0 0 0 -1.41,0.12 1,1 0 0 0 0.09,1.44 c 0.52,0.44 1.06,0.87 1.6,1.3 a 1,1 0 0 0 0.63,0.2 z"
       id="path54" />
    <path
       d="m 51.18,22.38 a 1,1 0 0 0 0.3,-0.05 c 0.63,-0.2 1.25,-0.38 1.89,-0.55 a 1,1 0 0 0 0.71,-1.23 1,1 0 0 0 -1.22,-0.7 c -0.67,0.17 -1.33,0.37 -2,0.58 a 1,1 0 0 0 0.31,1.95 z"
       id="path55" />
    <path
       d="m 25.61,41.86 c -0.32,0.6 -0.62,1.22 -0.9,1.85 a 1,1 0 0 0 0.5,1.32 1,1 0 0 0 0.41,0.09 1,1 0 0 0 0.91,-0.59 c 0.27,-0.59 0.56,-1.18 0.85,-1.76 a 1,1 0 1 0 -1.77,-0.91 z"
       id="path56" />
    <path
       d="m 23.11,72.66 a 1,1 0 0 0 0.24,0 1,1 0 0 0 0.73,-1.21 c -0.16,-0.64 -0.3,-1.28 -0.43,-1.92 a 1,1 0 0 0 -1.17,-0.79 1,1 0 0 0 -0.79,1.18 c 0.14,0.67 0.28,1.34 0.45,2 a 1,1 0 0 0 0.97,0.74 z"
       id="path57" />
    <path
       d="m 25.55,76.1 a 1,1 0 0 0 -1.29,-0.58 1,1 0 0 0 -0.58,1.29 q 0.36,1 0.78,1.92 a 1,1 0 0 0 0.91,0.6 0.93,0.93 0 0 0 0.4,-0.09 1,1 0 0 0 0.52,-1.31 C 26,77.33 25.78,76.72 25.55,76.1 Z"
       id="path58" />
    <path
       d="m 21.29,55.54 c -0.1,0.68 -0.18,1.36 -0.24,2.05 A 1,1 0 0 0 22,58.67 h 0.09 a 1,1 0 0 0 1,-0.91 c 0.06,-0.66 0.14,-1.31 0.23,-2 a 1,1 0 0 0 -0.86,-1.12 1,1 0 0 0 -1.17,0.9 z"
       id="path59" />
    <path
       d="m 24.12,47.86 a 1,1 0 0 0 -1.25,0.65 q -0.32,1 -0.57,2 a 1,1 0 0 0 0.7,1.2 0.73,0.73 0 0 0 0.25,0 1,1 0 0 0 1,-0.75 c 0.17,-0.63 0.35,-1.26 0.55,-1.89 a 1,1 0 0 0 -0.68,-1.21 z"
       id="path60" />
    <path
       d="m 82.42,98.28 a 1,1 0 0 0 -0.42,1.34 1,1 0 0 0 0.9,0.55 0.87,0.87 0 0 0 0.44,-0.11 c 0.62,-0.31 1.23,-0.63 1.82,-1 a 1.0034441,1.0034441 0 0 0 -1,-1.74 C 83.58,97.67 83,98 82.42,98.28 Z"
       id="path61" />
    <path
       d="m 76,100.83 a 1.0104578,1.0104578 0 0 0 0.29,2 0.93,0.93 0 0 0 0.29,-0.05 c 0.66,-0.2 1.32,-0.41 2,-0.65 a 1,1 0 0 0 -0.68,-1.88 c -0.61,0.18 -1.23,0.39 -1.9,0.58 z"
       id="path62" />
    <path
       d="m 61.42,103.56 a 1,1 0 0 0 1,1 c 0.53,0 1.07,0 1.61,0 h 0.44 a 1,1 0 1 0 0,-2 H 64 62.46 a 1,1 0 0 0 -1.04,1 z"
       id="path63" />
    <path
       d="m 33.46,33.5 a 1,1 0 0 0 0.72,-0.31 c 0.45,-0.48 0.92,-0.94 1.39,-1.39 a 1.0008621,1.0008621 0 0 0 -1.38,-1.45 c -0.5,0.48 -1,1 -1.46,1.46 a 1,1 0 0 0 0.73,1.69 z"
       id="path64" />
    <path
       d="m 50.9,100.49 c -0.62,-0.2 -1.24,-0.43 -1.84,-0.66 a 1,1 0 1 0 -0.73,1.86 c 0.64,0.25 1.28,0.48 1.94,0.7 a 0.84,0.84 0 0 0 0.31,0 1.0127191,1.0127191 0 0 0 0.32,-2 z"
       id="path65" />
    <path
       d="m 29.42,35.75 q -0.62,0.82 -1.2,1.68 a 1,1 0 0 0 0.27,1.38 1,1 0 0 0 1.39,-0.27 c 0.37,-0.54 0.75,-1.07 1.14,-1.6 a 1,1 0 1 0 -1.6,-1.19 z"
       id="path66" />
    <path
       d="m 31,89.2 c 0.44,0.53 0.9,1 1.36,1.55 a 1,1 0 0 0 0.74,0.32 1,1 0 0 0 0.67,-0.27 1,1 0 0 0 0.06,-1.41 c -0.44,-0.48 -0.88,-1 -1.3,-1.47 A 1,1 0 1 0 31,89.2 Z"
       id="path67" />
    <path
       d="m 68.46,103.4 a 1,1 0 0 0 1,0.87 h 0.13 c 0.68,-0.09 1.36,-0.2 2,-0.32 a 1.015197,1.015197 0 1 0 -0.35,-2 c -0.65,0.12 -1.29,0.22 -2,0.3 a 1,1 0 0 0 -0.78,1.15 z"
       id="path68" />
    <path
       d="m 38.71,28.82 a 1,1 0 0 0 0.6,-0.2 c 0.53,-0.39 1.06,-0.77 1.6,-1.14 a 1.0012492,1.0012492 0 1 0 -1.12,-1.66 q -0.85,0.59 -1.68,1.2 a 1,1 0 0 0 -0.2,1.4 1,1 0 0 0 0.8,0.4 z"
       id="path69" />
    <path
       d="m 45,99.12 a 1,1 0 0 0 -0.41,-1.35 c -0.58,-0.31 -1.14,-0.63 -1.7,-1 a 1,1 0 1 0 -1,1.72 c 0.58,0.35 1.18,0.69 1.79,1 A 1,1 0 0 0 45,99.12 Z"
       id="path70" />
    <path
       d="m 44.67,25.08 a 0.93,0.93 0 0 0 0.46,-0.12 c 0.58,-0.3 1.17,-0.58 1.77,-0.86 a 1.0001625,1.0001625 0 0 0 -0.83,-1.82 c -0.63,0.29 -1.25,0.59 -1.86,0.91 a 1,1 0 0 0 0.46,1.89 z"
       id="path71" />
    <path
       d="m 91.24,93.64 a 1,1 0 0 0 -1.41,-0.15 c -0.51,0.41 -1,0.81 -1.55,1.2 a 1,1 0 0 0 -0.22,1.4 1,1 0 0 0 1.4,0.21 c 0.55,-0.4 1.1,-0.82 1.63,-1.26 a 1,1 0 0 0 0.15,-1.4 z"
       id="path72" />
    <path
       d="m 74.79,21.82 c 0.65,0.18 1.29,0.37 1.93,0.58 a 1.12,1.12 0 0 0 0.31,0.05 1.0119412,1.0119412 0 0 0 0.31,-2 c -0.67,-0.21 -1.35,-0.41 -2,-0.6 a 1,1 0 1 0 -0.52,1.93 z"
       id="path73" />
    <path
       d="m 105.51,49.78 a 1,1 0 1 0 -1.92,0.55 c 0.18,0.64 0.34,1.29 0.49,2 a 1,1 0 0 0 1,0.78 0.83,0.83 0 0 0 0.22,0 1,1 0 0 0 0.75,-1.2 c -0.17,-0.77 -0.35,-1.45 -0.54,-2.13 z"
       id="path74" />
    <path
       d="m 89.13,29 a 1,1 0 0 0 0.61,0.21 1,1 0 0 0 0.62,-1.79 C 89.8,26.99 89.23,26.57 88.65,26.17 a 1,1 0 1 0 -1.14,1.64 c 0.55,0.34 1.09,0.74 1.62,1.19 z"
       id="path75" />
    <path
       d="m 106.09,63.38 a 1,1 0 0 0 -1.06,0.93 c 0,0.67 -0.11,1.34 -0.19,2 a 1,1 0 0 0 0.88,1.11 h 0.11 a 1,1 0 0 0 1,-0.88 c 0.08,-0.7 0.14,-1.4 0.19,-2.11 a 1,1 0 0 0 -0.93,-1.05 z"
       id="path76" />
    <path
       d="m 106.89,57.05 a 1.0049876,1.0049876 0 1 0 -2,0.2 c 0.06,0.67 0.12,1.34 0.15,2 a 1,1 0 0 0 1,1 v 0 a 1,1 0 0 0 1,-1.05 C 107,58.45 107,57.75 106.89,57.05 Z"
       id="path77" />
    <path
       d="m 81.41,24.25 c 0.6,0.28 1.21,0.58 1.8,0.89 a 1,1 0 0 0 0.46,0.12 1,1 0 0 0 0.47,-1.88 c -0.62,-0.33 -1.25,-0.65 -1.89,-0.95 a 1.0022475,1.0022475 0 0 0 -0.84,1.82 z"
       id="path78" />
    <path
       d="m 102.89,42.86 a 1,1 0 0 0 -1.33,-0.47 1,1 0 0 0 -0.47,1.34 c 0.29,0.6 0.57,1.22 0.83,1.84 a 1,1 0 0 0 0.92,0.61 1.09,1.09 0 0 0 0.39,-0.08 1,1 0 0 0 0.53,-1.31 c -0.27,-0.65 -0.56,-1.29 -0.87,-1.93 z"
       id="path79" />
    <path
       d="m 97.5,37.65 c 0.39,0.55 0.77,1.11 1.13,1.67 a 1,1 0 0 0 0.84,0.46 1,1 0 0 0 0.85,-1.54 c -0.39,-0.59 -0.78,-1.18 -1.19,-1.75 a 1,1 0 0 0 -1.4,-0.23 1,1 0 0 0 -0.23,1.39 z"
       id="path80" />
    <path
       d="m 94.33,33.74 a 1,1 0 0 0 0.73,0.32 1,1 0 0 0 0.68,-0.26 1,1 0 0 0 0.06,-1.42 c -0.48,-0.52 -1,-1 -1.47,-1.52 a 1,1 0 1 0 -1.4,1.42 c 0.47,0.47 0.94,0.96 1.4,1.46 z"
       id="path81" />
    <path
       d="m 40.44,80.81 a 5.94,5.94 0 0 0 2.46,-0.54 l 0.14,0.17 a 1,1 0 0 0 0.74,0.33 1,1 0 0 0 0.67,-0.26 1,1 0 0 0 0.11,-1.35 A 6,6 0 0 0 38.84,69 1,1 0 0 0 36.96,69.65 c 0,0.07 0,0.13 0.07,0.2 a 6,6 0 0 0 3.41,10.92 z m 0,-10 a 4,4 0 1 1 -4,4 4,4 0 0 1 4,-3.99 z"
       id="path82" />
    <path
       d="m 85.17,79.65 a 1,1 0 0 0 0.78,-0.37 c 0.44,-0.53 0.86,-1.09 1.25,-1.65 A 1,1 0 0 0 87,76.24 1,1 0 0 0 85.61,76.48 c -0.37,0.53 -0.76,1 -1.16,1.54 a 1,1 0 0 0 0.15,1.41 1,1 0 0 0 0.57,0.22 z"
       id="path83" />
    <path
       d="m 73.71,37.11 q 0.9,0.36 1.77,0.78 a 1,1 0 0 0 0.43,0.1 1,1 0 0 0 0.44,-1.9 c -0.61,-0.3 -1.25,-0.58 -1.89,-0.84 a 1.0027587,1.0027587 0 0 0 -0.75,1.86 z"
       id="path84" />
    <path
       d="M 49.64,83.47 C 49.1,83.12 48.57,82.75 48.07,82.36 A 1.0220078,1.0220078 0 1 0 46.85,84 c 0.55,0.42 1.12,0.82 1.69,1.2 a 1.0040418,1.0040418 0 0 0 1.1,-1.68 z"
       id="path85" />
    <path
       d="m 84.45,45 c 0.4,0.5 0.79,1 1.15,1.55 A 1,1 0 0 0 86.43,46.98 1,1 0 0 0 87,46.8 1,1 0 0 0 87.25,45.41 C 86.86,44.85 86.44,44.29 86.01,43.75 A 1,1 0 0 0 84.6,43.6 1,1 0 0 0 84.45,45 Z"
       id="path86" />
    <path
       d="m 55.69,86.41 c -0.6,-0.2 -1.21,-0.43 -1.8,-0.68 a 1.0019232,1.0019232 0 1 0 -0.77,1.85 c 0.63,0.26 1.29,0.51 1.94,0.73 a 1.19,1.19 0 0 0 0.32,0 1.0119412,1.0119412 0 0 0 0.31,-2 z"
       id="path87" />
    <path
       d="m 81.1,41.58 a 1,1 0 0 0 0.65,0.25 1,1 0 0 0 0.65,-1.76 c -0.52,-0.45 -1.07,-0.89 -1.62,-1.3 a 1,1 0 0 0 -1.4,0.21 1,1 0 0 0 0.21,1.4 c 0.52,0.38 1.02,0.79 1.51,1.2 z"
       id="path88" />
    <path
       d="m 80.12,84.48 a 1,1 0 0 0 0.59,-0.2 c 0.56,-0.41 1.1,-0.84 1.63,-1.29 A 1.0131634,1.0131634 0 1 0 81,81.47 c -0.49,0.42 -1,0.82 -1.51,1.2 a 1,1 0 0 0 -0.22,1.4 1,1 0 0 0 0.85,0.41 z"
       id="path89" />
    <path
       d="M 76.74,85.62 A 1,1 0 0 0 75.4,85.15 c -0.57,0.28 -1.17,0.54 -1.77,0.78 a 1,1 0 0 0 0.37,1.93 1.21,1.21 0 0 0 0.37,-0.07 c 0.64,-0.26 1.28,-0.54 1.9,-0.84 a 1,1 0 0 0 0.47,-1.33 z"
       id="path90" />
    <path
       d="m 88.69,52.57 a 1,1 0 0 0 0.94,0.66 1,1 0 0 0 0.34,-0.06 1,1 0 0 0 0.6,-1.28 c -0.23,-0.65 -0.5,-1.3 -0.78,-1.93 a 1,1 0 1 0 -1.82,0.82 c 0.26,0.59 0.5,1.22 0.72,1.79 z"
       id="path91" />
    <path
       d="m 88.43,73.62 a 1,1 0 0 0 0.41,0.09 1,1 0 0 0 0.92,-0.59 c 0.28,-0.62 0.54,-1.27 0.78,-1.92 a 1,1 0 0 0 -1.88,-0.68 c -0.22,0.6 -0.46,1.2 -0.73,1.78 a 1,1 0 0 0 0.5,1.32 z"
       id="path92" />
    <path
       d="m 91.86,66.19 c 0.11,-0.67 0.2,-1.36 0.27,-2 A 1,1 0 0 0 91.22,63.1 1,1 0 0 0 90.14,64 c -0.06,0.64 -0.15,1.29 -0.25,1.91 A 1,1 0 0 0 90.71,67 h 0.17 a 1,1 0 0 0 0.98,-0.81 z"
       id="path93" />
    <path
       d="m 89.9,57.23 c 0.11,0.63 0.19,1.27 0.24,1.91 a 1,1 0 0 0 1,0.91 h 0.09 A 1,1 0 0 0 92.14,59 c -0.06,-0.69 -0.15,-1.38 -0.26,-2.06 a 1.0135211,1.0135211 0 0 0 -2,0.33 z"
       id="path94" />
    <path
       d="M 36.9,65.4 H 37 a 1,1 0 0 0 0.89,-1.11 c -0.07,-0.63 -0.11,-1.28 -0.13,-1.92 a 1.0006123,1.0006123 0 0 0 -2,0.07 c 0,0.69 0.07,1.38 0.14,2.07 a 1,1 0 0 0 1,0.89 z"
       id="path95" />
    <path
       d="m 36.45,55.23 c -0.15,0.66 -0.28,1.35 -0.38,2 a 1,1 0 0 0 0.84,1.13 h 0.15 a 1,1 0 0 0 1,-0.86 c 0.1,-0.63 0.22,-1.27 0.36,-1.89 a 1,1 0 1 0 -1.95,-0.44 z"
       id="path96" />
    <path
       d="m 39.89,51.1 c 0.26,-0.59 0.54,-1.18 0.83,-1.74 A 1,1 0 0 0 39,48.43 c -0.32,0.61 -0.62,1.24 -0.89,1.87 a 1,1 0 0 0 0.52,1.32 1.1,1.1 0 0 0 0.4,0.08 1,1 0 0 0 0.86,-0.6 z"
       id="path97" />
    <path
       d="m 48.62,37.8 c -0.58,0.38 -1.15,0.78 -1.7,1.2 a 1,1 0 0 0 0.61,1.8 1,1 0 0 0 0.6,-0.21 c 0.51,-0.39 1,-0.76 1.58,-1.11 A 1.0013116,1.0013116 0 0 0 48.62,37.8 Z"
       id="path98" />
    <path
       d="m 60.46,35.49 c 0.64,-0.09 1.28,-0.15 1.92,-0.19 a 1,1 0 0 0 0.94,-1.06 1,1 0 0 0 -1.06,-0.93 c -0.69,0 -1.38,0.1 -2.06,0.2 a 1,1 0 0 0 -0.86,1.12 1,1 0 0 0 1,0.87 z"
       id="path99" />
    <path
       d="m 53.59,37.31 a 1.06,1.06 0 0 0 0.38,-0.07 c 0.59,-0.25 1.2,-0.47 1.81,-0.67 a 1,1 0 0 0 0.63,-1.27 1,1 0 0 0 -1.26,-0.63 c -0.65,0.21 -1.31,0.46 -1.95,0.72 a 1,1 0 0 0 0.39,1.92 z"
       id="path100" />
    <path
       d="m 69,87.27 c -0.63,0.12 -1.27,0.22 -1.91,0.3 a 1,1 0 0 0 -0.88,1.11 1,1 0 0 0 1,0.88 h 0.12 c 0.68,-0.09 1.37,-0.19 2.05,-0.32 a 1.01789,1.01789 0 0 0 -0.38,-2 z"
       id="path101" />
    <path
       d="m 69.1,35.75 h 0.19 a 1.0049876,1.0049876 0 0 0 0.2,-2 c -0.68,-0.14 -1.37,-0.25 -2,-0.33 a 1.0071743,1.0071743 0 1 0 -0.24,2 c 0.58,0.1 1.22,0.2 1.85,0.33 z"
       id="path102" />
    <path
       d="m 62.3,87.7 c -0.64,0 -1.29,-0.11 -1.92,-0.2 a 1.0090714,1.0090714 0 0 0 -0.27,2 c 0.68,0.09 1.37,0.16 2.06,0.2 h 0.06 a 1.0006123,1.0006123 0 0 0 0.07,-2 z"
       id="path103" />
    <path
       d="m 43.33,45.32 c 0.4,-0.51 0.82,-1 1.25,-1.48 A 1,1 0 0 0 43.1,42.5 c -0.46,0.5 -0.91,1 -1.34,1.58 a 1,1 0 0 0 0.17,1.4 1,1 0 0 0 0.62,0.22 1,1 0 0 0 0.78,-0.38 z"
       id="path104" />
  </g>
</svg>
