<?xml version="1.0" encoding="UTF-8" standalone="no"?>
<!-- Uploaded to: SVG Repo, www.svgrepo.com, Generator: SVG Repo Mixer Tools -->

<svg
   height="800px"
   width="800px"
   version="1.1"
   id="Layer_1"
   viewBox="0 0 512 512"
   xml:space="preserve"
   xmlns="http://www.w3.org/2000/svg"
   xmlns:svg="http://www.w3.org/2000/svg"><defs
   id="defs9" />







<g
   id="g4"
   style="font-style:normal;font-weight:normal;font-size:12px;font-family:Dialog;color-interpolation:auto;fill:#000000;fill-opacity:1;stroke:#000000;stroke-width:1;stroke-linecap:square;stroke-linejoin:miter;stroke-miterlimit:10;stroke-dasharray:none;stroke-dashoffset:0;stroke-opacity:1;color-rendering:auto;image-rendering:auto;shape-rendering:auto;text-rendering:auto"
   transform="matrix(6.02488,0,0,6.0359924,-44.996018,-45.0909)"><g
     style="fill:#ffffff;stroke:#ffffff;stroke-width:4;stroke-linecap:round"
     id="g2"><path
       style="stroke:none"
       d="m 85,10 c 3.3333,0 5,1.6667 5,5 v 70 c 0,3.3333 -1.6667,5 -5,5 H 15 c -3.3333,0 -5,-1.6667 -5,-5 V 15 c 0,-3.3333 1.6667,-5 5,-5 z"
       id="path1-0" /></g><g
     style="fill:#323232;stroke:#323232;stroke-width:4;stroke-linecap:round"
     id="g3"><path
       style="fill:none"
       d="m 85,10 c 3.3333,0 5,1.6667 5,5 v 70 c 0,3.3333 -1.6667,5 -5,5 H 15 c -3.3333,0 -5,-1.6667 -5,-5 V 15 c 0,-3.3333 1.6667,-5 5,-5 z"
       id="path2-4" /></g></g><g
   id="g5">
	
	
	
</g><path
   style="fill:#697aff;fill-opacity:1;stroke:#00013f;stroke-width:3.84;stroke-opacity:1"
   id="path13"
   d="m 316.01789,242.03739 c 0.60918,1.05513 -59.69974,105.51323 -60.9181,105.51323 -1.21836,0 -61.52727,-104.4581 -60.91809,-105.51323 0.60918,-1.05513 121.227,-1.05513 121.83619,0 z"
   transform="matrix(0.66031341,0,0,0.66031341,87.554186,271.20347)" /><path
   style="fill:#697aff;fill-opacity:1;stroke:#00013f;stroke-width:3.84;stroke-opacity:1"
   id="path13-4"
   d="m 316.01789,242.03739 c 0.60918,1.05513 -59.69974,105.51323 -60.9181,105.51323 -1.21836,0 -61.52727,-104.4581 -60.91809,-105.51323 0.60918,-1.05513 121.227,-1.05513 121.83619,0 z"
   transform="matrix(0.66031341,0,0,0.66031341,87.554186,195.31963)" /></svg>
