<?xml version="1.0" encoding="UTF-8" standalone="no"?>
<!-- Uploaded to: SVG Repo, www.svgrepo.com, Generator: SVG Repo Mixer Tools -->

<svg
   height="800px"
   width="800px"
   version="1.1"
   id="Layer_1"
   viewBox="0 0 512 512"
   xml:space="preserve"
   sodipodi:docname="furnace motor fast conveyor.svg"
   inkscape:version="1.3.2 (091e20e, 2023-11-25, custom)"
   xmlns:inkscape="http://www.inkscape.org/namespaces/inkscape"
   xmlns:sodipodi="http://sodipodi.sourceforge.net/DTD/sodipodi-0.dtd"
   xmlns="http://www.w3.org/2000/svg"
   xmlns:svg="http://www.w3.org/2000/svg"><defs
   id="defs9" /><sodipodi:namedview
   id="namedview9"
   pagecolor="#ffffff"
   bordercolor="#111111"
   borderopacity="1"
   inkscape:showpageshadow="0"
   inkscape:pageopacity="0"
   inkscape:pagecheckerboard="1"
   inkscape:deskcolor="#d1d1d1"
   inkscape:zoom="1.1289699"
   inkscape:cx="399.92209"
   inkscape:cy="492.04146"
   inkscape:window-width="1920"
   inkscape:window-height="1121"
   inkscape:window-x="-9"
   inkscape:window-y="-9"
   inkscape:window-maximized="1"
   inkscape:current-layer="Layer_1" />







<g
   style="font-style:normal;font-weight:normal;font-size:12px;font-family:Dialog;color-interpolation:auto;fill:#000000;fill-opacity:1;stroke:#000000;stroke-width:1;stroke-linecap:square;stroke-linejoin:miter;stroke-miterlimit:10;stroke-dasharray:none;stroke-dashoffset:0;stroke-opacity:1;color-rendering:auto;image-rendering:auto;shape-rendering:auto;text-rendering:auto"
   id="g4"
   transform="matrix(5.9673854,0,0,5.9673854,-41.568806,-44.686686)"><g
     id="g3"><g
       style="fill:#666666;stroke:#666666;stroke-width:3;stroke-linecap:round"
       id="g1"><path
         style="stroke:none"
         d="m 80,10 c 6.6667,0 10,3.3333 10,10 v 60 c 0,6.6667 -3.3333,10 -10,10 H 20 C 13.3333,90 10,86.6667 10,80 V 20 c 0,-6.6667 3.3333,-10 10,-10 z"
         id="path1" /></g><g
       style="stroke-width:3;stroke-linecap:round"
       id="g2"><path
         style="fill:none"
         d="m 80,10 c 6.6667,0 10,3.3333 10,10 v 60 c 0,6.6667 -3.3333,10 -10,10 H 20 C 13.3333,90 10,86.6667 10,80 V 20 c 0,-6.6667 3.3333,-10 10,-10 z"
         id="path2" /><circle
         r="25"
         style="fill:#aa0000;stroke:none"
         cx="50"
         cy="60"
         id="circle2-1" /></g></g></g><path
   sodipodi:type="star"
   style="fill:#ff8c69;stroke:#3f0000;stroke-width:3.84"
   id="path14"
   inkscape:flatsided="true"
   sodipodi:sides="3"
   sodipodi:cx="203.02428"
   sodipodi:cy="26.635838"
   sodipodi:r1="65.725731"
   sodipodi:r2="32.862865"
   sodipodi:arg1="-0.027020449"
   sodipodi:arg2="1.0201771"
   inkscape:rounded="0.05"
   inkscape:randomized="0"
   d="m 268.72602,24.860115 c 0.15378,5.689937 -92.01027,62.274749 -97.01479,59.562959 -5.00452,-2.71179 -7.92638,-110.820602 -3.07564,-113.79875 4.85074,-2.978148 99.93664,48.545853 100.09043,54.235791 z"
   inkscape:transform-center-x="-12.467192"
   inkscape:transform-center-y="0.061891972"
   transform="matrix(0.85472744,0.02118462,-0.02118462,0.85472744,148.18663,40.750272)" /><path
   sodipodi:type="star"
   style="fill:#ff8c69;stroke:#3f0000;stroke-width:3.84"
   id="path14-1"
   inkscape:flatsided="true"
   sodipodi:sides="3"
   sodipodi:cx="203.02428"
   sodipodi:cy="26.635838"
   sodipodi:r1="65.725731"
   sodipodi:r2="32.862865"
   sodipodi:arg1="-0.027020449"
   sodipodi:arg2="1.0201771"
   inkscape:rounded="0.05"
   inkscape:randomized="0"
   d="m 268.72602,24.860115 c 0.15378,5.689937 -92.01027,62.274749 -97.01479,59.562959 -5.00452,-2.71179 -7.92638,-110.820602 -3.07564,-113.79875 4.85074,-2.978148 99.93664,48.545853 100.09043,54.235791 z"
   inkscape:transform-center-x="-12.467192"
   inkscape:transform-center-y="0.061891972"
   transform="matrix(0.85472744,0.02118462,-0.02118462,0.85472744,253.74306,40.750272)" /><g
   id="g5">
	
	
	
</g><g
   id="g9"
   transform="matrix(2.9788174,0,0,2.9788174,-27.382193,-34.061122)"><g
     id="color"><polygon
       fill="#9b9b9a"
       points="60.1319,41.9967 56.9608,41.9967 50.3888,56.979 19.2293,56.979 13.2547,42.7701 11.0487,42.7701 11.0487,26.5319 13.2547,26.5319 16.5637,17.0645 54.2492,17.0645 57.3744,27.9106 60.1319,27.9106 "
       id="polygon1" /><circle
       cx="25.3876"
       cy="29.2749"
       r="5.8825998"
       fill="#d0cfce"
       id="circle1" /><circle
       cx="27.4098"
       cy="46.110001"
       r="4.0443001"
       fill="#d0cfce"
       id="circle2" /><circle
       cx="44.3223"
       cy="36.023201"
       r="7.8498998"
       fill="#d0cfce"
       id="circle3" /><path
       fill="#ffffff"
       d="m 20.75,15.9438 c 0,-1.5947 1.1753,-2.8875 2.625,-2.8875 1.4497,0 2.625,1.2927 2.625,2.8875"
       id="path3-4" /><path
       fill="#ffffff"
       d="m 28.625,15.9438 c 0,-1.5947 1.1753,-2.8875 2.625,-2.8875 1.4497,0 2.625,1.2928 2.625,2.8875"
       id="path4-2" /><path
       fill="#ffffff"
       d="m 36.5,15.9438 c 0,-1.5947 1.1753,-2.8875 2.625,-2.8875 1.4497,0 2.625,1.2928 2.625,2.8875"
       id="path5-1" /><path
       fill="#ffffff"
       d="m 44.375,15.9438 c 0,-1.5947 1.1753,-2.8875 2.625,-2.8875 1.4497,0 2.625,1.2928 2.625,2.8875"
       id="path6-1" /></g><g
     id="hair" /><g
     id="skin" /><g
     id="skin-shadow" /><g
     id="line"><polygon
       fill="none"
       stroke="#000000"
       stroke-linecap="round"
       stroke-linejoin="round"
       stroke-miterlimit="10"
       stroke-width="2"
       points="60.1319,41.9967 56.9608,41.9967 50.3888,56.979 19.2293,56.979 13.2547,42.7701 11.0487,42.7701 11.0487,26.5319 13.2547,26.5319 16.5637,17.0645 54.2492,17.0645 57.3744,27.9106 60.1319,27.9106 "
       id="polygon6" /><circle
       cx="25.3876"
       cy="29.2749"
       r="5.8825998"
       fill="none"
       stroke="#000000"
       stroke-linecap="round"
       stroke-linejoin="round"
       stroke-miterlimit="10"
       stroke-width="2"
       id="circle6" /><circle
       cx="27.4098"
       cy="46.110001"
       r="4.0443001"
       fill="none"
       stroke="#000000"
       stroke-linecap="round"
       stroke-linejoin="round"
       stroke-miterlimit="10"
       stroke-width="2"
       id="circle7" /><circle
       cx="44.3223"
       cy="36.023201"
       r="7.8498998"
       fill="none"
       stroke="#000000"
       stroke-linecap="round"
       stroke-linejoin="round"
       stroke-miterlimit="10"
       stroke-width="2"
       id="circle8" /><line
       x1="25.3876"
       x2="44.3223"
       y1="23.3923"
       y2="28.173201"
       fill="none"
       stroke="#000000"
       stroke-linecap="round"
       stroke-linejoin="round"
       stroke-miterlimit="10"
       stroke-width="2"
       id="line8" /><path
       fill="none"
       stroke="#000000"
       stroke-linecap="round"
       stroke-linejoin="round"
       stroke-miterlimit="10"
       stroke-width="2"
       d="m 19.505,29.2749 c 0,0 2.2519,14.9967 3.8605,18.4436 1.6085,3.4468 4.0443,2.4358 4.0443,2.4358 4.0443,-0.3677 20.9103,-7.3842 20.9103,-7.3842"
       id="path8-0" /><path
       fill="none"
       stroke="#000000"
       stroke-linecap="round"
       stroke-linejoin="round"
       stroke-miterlimit="10"
       stroke-width="2"
       d="m 20.75,15.9438 c 0,-1.5947 1.1753,-2.8875 2.625,-2.8875 1.4497,0 2.625,1.2927 2.625,2.8875"
       id="path9-0" /><path
       fill="none"
       stroke="#000000"
       stroke-linecap="round"
       stroke-linejoin="round"
       stroke-miterlimit="10"
       stroke-width="2"
       d="m 28.625,15.9438 c 0,-1.5947 1.1753,-2.8875 2.625,-2.8875 1.4497,0 2.625,1.2928 2.625,2.8875"
       id="path10" /><path
       fill="none"
       stroke="#000000"
       stroke-linecap="round"
       stroke-linejoin="round"
       stroke-miterlimit="10"
       stroke-width="2"
       d="m 36.5,15.9438 c 0,-1.5947 1.1753,-2.8875 2.625,-2.8875 1.4497,0 2.625,1.2928 2.625,2.8875"
       id="path11" /><path
       fill="none"
       stroke="#000000"
       stroke-linecap="round"
       stroke-linejoin="round"
       stroke-miterlimit="10"
       stroke-width="2"
       d="m 44.375,15.9438 c 0,-1.5947 1.1753,-2.8875 2.625,-2.8875 1.4497,0 2.625,1.2928 2.625,2.8875"
       id="path12" /></g></g><path
   sodipodi:type="star"
   style="fill:#697aff;fill-opacity:1;stroke:#00013f;stroke-width:3.84;stroke-opacity:1"
   id="path13"
   inkscape:flatsided="true"
   sodipodi:sides="3"
   sodipodi:cx="255.09979"
   sodipodi:cy="277.20847"
   sodipodi:r1="70.342155"
   sodipodi:r2="35.171078"
   sodipodi:arg1="-0.52359878"
   sodipodi:arg2="0.52359878"
   inkscape:rounded="0.01"
   inkscape:randomized="0"
   d="m 316.01789,242.03739 c 0.60918,1.05513 -59.69974,105.51323 -60.9181,105.51323 -1.21836,0 -61.52727,-104.4581 -60.91809,-105.51323 0.60918,-1.05513 121.227,-1.05513 121.83619,0 z"
   inkscape:transform-center-y="10.305617"
   transform="matrix(0.66031341,0,0,0.66031341,87.554186,271.20341)"
   inkscape:transform-center-x="1.6283899e-06" /><path
   sodipodi:type="star"
   style="fill:#697aff;fill-opacity:1;stroke:#00013f;stroke-width:3.84;stroke-opacity:1"
   id="path13-4"
   inkscape:flatsided="true"
   sodipodi:sides="3"
   sodipodi:cx="255.09979"
   sodipodi:cy="277.20847"
   sodipodi:r1="70.342155"
   sodipodi:r2="35.171078"
   sodipodi:arg1="-0.52359878"
   sodipodi:arg2="0.52359878"
   inkscape:rounded="0.01"
   inkscape:randomized="0"
   d="m 316.01789,242.03739 c 0.60918,1.05513 -59.69974,105.51323 -60.9181,105.51323 -1.21836,0 -61.52727,-104.4581 -60.91809,-105.51323 0.60918,-1.05513 121.227,-1.05513 121.83619,0 z"
   inkscape:transform-center-y="10.305617"
   transform="matrix(0.66031341,0,0,0.66031341,87.554186,195.31957)"
   inkscape:transform-center-x="1.6283899e-06" /></svg>
