<?xml version="1.0" encoding="UTF-8" standalone="no"?>
<!-- Uploaded to: SVG Repo, www.svgrepo.com, Transformed by: SVG Repo Mixer Tools -->

<svg
   version="1.1"
   id="Layer_1"
   viewBox="0 0 100 100"
   xml:space="preserve"
   width="100"
   height="100"
   fill="#000000"
   sodipodi:docname="ingot silver.svg"
   inkscape:version="1.3.2 (091e20e, 2023-11-25, custom)"
   xmlns:inkscape="http://www.inkscape.org/namespaces/inkscape"
   xmlns:sodipodi="http://sodipodi.sourceforge.net/DTD/sodipodi-0.dtd"
   xmlns="http://www.w3.org/2000/svg"
   xmlns:svg="http://www.w3.org/2000/svg"><sodipodi:namedview
   id="namedview1"
   pagecolor="#ffffff"
   bordercolor="#111111"
   borderopacity="1"
   inkscape:showpageshadow="0"
   inkscape:pageopacity="0"
   inkscape:pagecheckerboard="1"
   inkscape:deskcolor="#d1d1d1"
   inkscape:zoom="14.65"
   inkscape:cx="50.03413"
   inkscape:cy="50"
   inkscape:window-width="2142"
   inkscape:window-height="1425"
   inkscape:window-x="4403"
   inkscape:window-y="247"
   inkscape:window-maximized="0"
   inkscape:current-layer="Layer_1" /><defs
   id="defs13" />
	
	
	<g
   id="SVGRepo_iconCarrier"
   transform="scale(0.1953125)">
		<polygon
   style="fill:#a3a3a3;fill-opacity:1"
   points="317.026,54.558 317.026,457.442 413.38,512 413.38,0 "
   id="polygon1" />
		<polygon
   style="fill:#777777;fill-opacity:1"
   points="337.924,75.456 413.38,0 256,0 235.102,96.354 "
   id="polygon2" />
		<polygon
   style="fill:#a3a3a3;fill-opacity:1"
   points="256,0 98.62,0 174.076,96.354 256,96.354 "
   id="polygon3" />
		<polygon
   style="fill:#777777;fill-opacity:1"
   points="337.924,436.544 235.102,415.646 256,512 413.38,512 "
   id="polygon4" />
		<polygon
   style="fill:#a3a3a3;fill-opacity:1"
   points="174.076,415.646 98.62,512 256,512 256,415.646 "
   id="polygon5" />
		<polygon
   style="fill:#cacaca;fill-opacity:1"
   points="337.924,75.456 256,75.456 235.102,256 256,436.544 337.924,436.544 "
   id="polygon6" />
		<polygon
   style="fill:#eeeeee;fill-opacity:1"
   points="153.178,256 174.076,436.544 256,436.544 256,75.456 174.076,75.456 "
   id="polygon7" />
		<polygon
   style="fill:#cacaca;fill-opacity:1"
   points="174.076,75.456 98.62,0 98.62,512 174.076,436.544 "
   id="polygon8" />
		<g
   id="g11">
			<polygon
   style="fill:#a3a3a3;fill-opacity:1"
   points="235.102,129.353 256,145.027 292.29,145.027 292.29,113.68 256,113.68 "
   id="polygon9" />
			<polygon
   style="fill:#a3a3a3;fill-opacity:1"
   points="235.102,183.25 256,198.923 292.29,198.923 292.29,167.577 256,167.577 "
   id="polygon10" />
			<polygon
   style="fill:#a3a3a3;fill-opacity:1"
   points="235.102,382.647 256,398.32 292.29,398.32 292.29,366.973 256,366.973 "
   id="polygon11" />
		</g>
		<g
   id="g13">
			<rect
   x="219.711"
   y="113.685"
   style="fill:#cacaca;fill-opacity:1"
   width="36.290001"
   height="31.347"
   id="rect11" />
			<rect
   x="219.711"
   y="366.96799"
   style="fill:#cacaca;fill-opacity:1"
   width="36.290001"
   height="31.347"
   id="rect12" />
			<rect
   x="219.711"
   y="167.58099"
   style="fill:#cacaca;fill-opacity:1"
   width="36.290001"
   height="31.347"
   id="rect13" />
		</g>
	</g>
</svg>
