<?xml version="1.0" encoding="UTF-8" standalone="no"?>
<!-- Uploaded to: SVG Repo, www.svgrepo.com, Transformed by: SVG Repo Mixer Tools -->

<svg
   version="1.1"
   id="Layer_1"
   viewBox="0 0 100 100"
   xml:space="preserve"
   width="100"
   height="100"
   fill="#000000"
   xmlns="http://www.w3.org/2000/svg"
   xmlns:svg="http://www.w3.org/2000/svg"><defs
   id="defs13" />
	<g
   id="SVGRepo_bgCarrier"
   stroke-width="0" />
	<g
   id="SVGRepo_tracerCarrier"
   stroke-linecap="round"
   stroke-linejoin="round" />
	<g
   id="SVGRepo_iconCarrier"
   transform="scale(0.1953125)">
		<polygon
   style="fill:#27bfeb"
   points="317.026,457.442 413.38,512 413.38,0 317.026,54.558 "
   id="polygon1" />
		<polygon
   style="fill:#0077ee"
   points="413.38,0 256,0 235.102,96.354 337.924,75.456 "
   id="polygon2" />
		<polygon
   style="fill:#27bfeb"
   points="98.62,0 174.076,96.354 256,96.354 256,0 "
   id="polygon3" />
		<polygon
   style="fill:#0077ee"
   points="235.102,415.646 256,512 413.38,512 337.924,436.544 "
   id="polygon4" />
		<polygon
   style="fill:#27bfeb"
   points="98.62,512 256,512 256,415.646 174.076,415.646 "
   id="polygon5" />
		<polygon
   style="fill:#3ff3f3"
   points="235.102,256 256,436.544 337.924,436.544 337.924,75.456 256,75.456 "
   id="polygon6" />
		<polygon
   style="fill:#c1f9ff"
   points="256,436.544 256,75.456 174.076,75.456 153.178,256 174.076,436.544 "
   id="polygon7" />
		<polygon
   style="fill:#3ff3f3"
   points="98.62,0 98.62,512 174.076,436.544 174.076,75.456 "
   id="polygon8" />
		<g
   id="g11">
			<polygon
   style="fill:#27bfeb"
   points="292.29,145.027 292.29,113.68 256,113.68 235.102,129.353 256,145.027 "
   id="polygon9" />
			<polygon
   style="fill:#27bfeb"
   points="292.29,198.923 292.29,167.577 256,167.577 235.102,183.25 256,198.923 "
   id="polygon10" />
			<polygon
   style="fill:#27bfeb"
   points="292.29,398.32 292.29,366.973 256,366.973 235.102,382.647 256,398.32 "
   id="polygon11" />
		</g>
		<g
   id="g13">
			<rect
   x="219.711"
   y="113.685"
   style="fill:#3ff3f3"
   width="36.290001"
   height="31.347"
   id="rect11" />
			<rect
   x="219.711"
   y="366.96799"
   style="fill:#3ff3f3"
   width="36.290001"
   height="31.347"
   id="rect12" />
			<rect
   x="219.711"
   y="167.58099"
   style="fill:#3ff3f3"
   width="36.290001"
   height="31.347"
   id="rect13" />
		</g>
	</g>
</svg>
