<?xml version="1.0" encoding="iso-8859-1"?>
<!-- Uploaded to: SVG Repo, www.svgrepo.com, Generator: SVG Repo Mixer Tools -->
<svg height="800px" width="800px" version="1.1" id="Layer_1" xmlns="http://www.w3.org/2000/svg" xmlns:xlink="http://www.w3.org/1999/xlink" 
	 viewBox="0 0 502.933 502.933" xml:space="preserve">
<g transform="translate(17 15)">
	<path style="fill:#FFD0A1;" d="M141.072,449.533h187.733c9.387,0,17.067,7.68,17.067,17.067l0,0c0,9.387-7.68,17.067-17.067,17.067
		H141.072c-9.387,0-17.067-7.68-17.067-17.067l0,0C124.005,457.213,131.685,449.533,141.072,449.533z"/>
	<polygon style="fill:#F2EDDA;" points="192.272,278.867 277.605,261.8 277.605,449.533 192.272,449.533 	"/>
	<path style="fill:#AAB1BA;" d="M234.939,108.2c23.893,0,42.667,18.773,42.667,42.667s-18.773,42.667-42.667,42.667
		s-42.667-18.773-42.667-42.667S211.045,108.2,234.939,108.2"/>
</g>
<path style="fill:#51565F;" d="M362.872,502.933H141.005c-2.56,0-4.267-1.707-4.267-4.267V481.6
	c0-11.947,9.387-21.333,21.333-21.333h89.6V456c0-2.56,1.707-4.267,4.267-4.267s4.267,1.707,4.267,4.267v4.267h89.6
	c11.947,0,21.333,9.387,21.333,21.333v17.067C367.139,501.227,365.432,502.933,362.872,502.933z M145.272,494.4h213.333v-12.8
	c0-7.68-5.12-12.8-12.8-12.8H158.072c-7.68,0-12.8,5.12-12.8,12.8V494.4z M209.272,434.667c-1.707,0-3.413-1.707-4.267-3.413V430.4
	c0-1.707,1.707-3.413,3.413-4.267l85.333-17.067c2.56-0.853,4.267,0.853,5.12,3.413v0.853c0,1.707-1.707,3.413-3.413,4.267
	L209.272,434.667C210.125,434.667,209.272,434.667,209.272,434.667z M209.272,400.533c-1.707,0-3.413-1.707-4.267-3.413v-0.853
	c0-1.707,1.707-3.413,3.413-4.267l85.333-17.067c2.56-0.853,4.267,0.853,5.12,3.413v0.853c0,1.707-1.707,3.413-3.413,4.267
	L209.272,400.533C210.125,400.533,209.272,400.533,209.272,400.533z M209.272,366.4c-1.707,0-3.413-1.707-4.267-3.413v-0.853
	c0-1.707,1.707-3.413,3.413-4.267l85.333-17.067c2.56-0.853,4.267,0.853,5.12,3.413v0.853c0,1.707-1.707,3.413-3.413,4.267
	L209.272,366.4C210.125,366.4,209.272,366.4,209.272,366.4z M209.272,332.267c-1.707,0-3.413-1.707-4.267-3.413V328
	c0-1.707,1.707-3.413,3.413-4.267l85.333-17.067c2.56-0.853,4.267,0.853,5.12,3.413v0.853c0,1.707-1.707,3.413-3.413,4.267
	L209.272,332.267C210.125,332.267,209.272,332.267,209.272,332.267z M209.272,298.133c-1.707,0-3.413-1.707-4.267-3.413v-0.853
	c0-1.707,1.707-3.413,3.413-4.267l39.253-7.68v-39.253c0-2.56,1.707-4.267,4.267-4.267s4.267,1.707,4.267,4.267v37.547l37.547-7.68
	c2.56-0.853,4.267,0.853,5.12,3.413v0.853c0,1.707-1.707,3.413-3.413,4.267l-42.667,8.533l0,0L209.272,298.133
	C210.125,298.133,209.272,298.133,209.272,298.133z M251.939,212.8c-25.6,0-46.933-21.333-46.933-46.933
	s21.333-46.933,46.933-46.933s46.933,21.333,46.933,46.933S277.539,212.8,251.939,212.8z M251.939,127.467
	c-21.333,0-38.4,17.067-38.4,38.4s17.067,38.4,38.4,38.4s38.4-17.067,38.4-38.4S273.272,127.467,251.939,127.467z M328.739,144.533
	c-0.853,0-2.56-0.853-3.413-1.707c-1.707-1.707-0.853-4.267,0.853-5.973l75.947-60.587h-30.72c-1.707,0-3.413-0.853-4.267-2.56
	c-0.853-1.707,0-3.413,0.853-5.12l59.733-51.2c1.707-1.707,4.267-1.707,5.973,0.853c1.707,1.707,1.707,4.267-0.853,5.973
	l-51.2,43.52h30.72c1.707,0,3.413,0.853,4.267,2.56s0,3.413-1.707,5.12l-85.333,68.267
	C330.445,144.533,329.592,144.533,328.739,144.533z M123.939,127.467c-0.853,0-2.56-0.853-3.413-0.853l-51.2-51.2
	c-1.707-1.707-1.707-4.267,0-5.973s4.267-1.707,5.973,0l43.52,43.52V37.867c0-1.707,0.853-3.413,2.56-4.267
	c1.707-0.853,3.413,0,5.12,0.853l68.267,76.8c1.707,1.707,1.707,4.267,0,5.973c-1.707,1.707-4.267,1.707-5.973,0L128.206,48.96
	v74.24c0,1.707-0.853,3.413-2.56,4.267C124.792,127.467,124.792,127.467,123.939,127.467z M260.472,93.333c-0.853,0-0.853,0-1.707,0
	c-2.56-0.853-3.413-3.413-2.56-5.12l14.507-42.667L236.579,59.2c-1.707,0.853-3.413,0-4.267-0.853
	c-0.853-0.853-1.707-2.56-0.853-4.267l17.067-51.2c0.853-2.56,3.413-3.413,5.12-2.56c2.56,0.853,3.413,3.413,2.56,5.12
	l-14.507,42.667l34.133-13.653c1.707-0.853,3.413,0,4.267,0.853c0.853,0.853,1.707,2.56,0.853,4.267l-17.067,51.2
	C263.885,92.48,262.179,93.333,260.472,93.333z"/>
</svg>