<?xml version="1.0" encoding="iso-8859-1"?>
<!-- Uploaded to: SVG Repo, www.svgrepo.com, Generator: SVG Repo Mixer Tools -->
<svg height="800px" width="800px" version="1.1" id="Layer_1" xmlns="http://www.w3.org/2000/svg" xmlns:xlink="http://www.w3.org/1999/xlink" 
	 viewBox="0 0 512 512" xml:space="preserve">
<path style="fill:#ACABB1;" d="M422.957,133.565c-120.83,0-213.083,0-333.913,0c-9.223,0-16.696,7.473-16.696,16.696v345.043
	c0,9.223,7.473,16.696,16.696,16.696c120.83,0,213.083,0,333.913,0c9.223,0,16.696-7.473,16.696-16.696V150.261
	C439.652,141.038,432.179,133.565,422.957,133.565z"/>
<path style="fill:#898890;" d="M422.957,133.565H256V512h166.957c9.223,0,16.696-7.473,16.696-16.696V150.261
	C439.652,141.038,432.179,133.565,422.957,133.565z"/>
<g>
	<path style="fill:#57565C;" d="M155.826,445.217c-9.223,0-16.696-7.473-16.696-16.696V217.043c0-9.223,7.473-16.696,16.696-16.696
		s16.696,7.473,16.696,16.696v211.478C172.522,437.744,165.049,445.217,155.826,445.217z"/>
	<path style="fill:#57565C;" d="M256,445.217c-9.223,0-16.696-7.473-16.696-16.696V217.043c0-9.223,7.473-16.696,16.696-16.696
		s16.696,7.473,16.696,16.696v211.478C272.696,437.744,265.223,445.217,256,445.217z"/>
	<path style="fill:#57565C;" d="M356.174,445.217c-9.223,0-16.696-7.473-16.696-16.696V217.043c0-9.223,7.473-16.696,16.696-16.696
		s16.696,7.473,16.696,16.696v211.478C372.87,437.744,365.397,445.217,356.174,445.217z"/>
</g>
<path style="fill:#898890;" d="M322.783,0c-48.332,0-85.234,0-133.565,0c-9.223,0-16.696,7.473-16.696,16.696v66.783
	c0,9.223,7.473,16.696,16.696,16.696c48.332,0,85.234,0,133.565,0c9.223,0,16.696-7.473,16.696-16.696V16.696
	C339.478,7.473,332.005,0,322.783,0z M306.087,66.783c-36.248,0-63.925,0-100.174,0V33.391c36.248,0,63.925,0,100.174,0V66.783z"/>
<path style="fill:#C6C5CA;" d="M456.348,66.783c-144.996,0-255.699,0-400.696,0c-9.223,0-16.696,7.473-16.696,16.696v66.783
	c0,9.223,7.473,16.696,16.696,16.696c144.996,0,255.699,0,400.696,0c9.223,0,16.696-7.473,16.696-16.696V83.478
	C473.043,74.256,465.57,66.783,456.348,66.783z"/>
<path style="fill:#787680;" d="M322.783,0H256v33.391h50.087v33.391H256v33.391h66.783c9.223,0,16.696-7.473,16.696-16.696V16.696
	C339.478,7.473,332.005,0,322.783,0z"/>
<path style="fill:#ACABB1;" d="M456.348,66.783H256v100.174h200.348c9.223,0,16.696-7.473,16.696-16.696V83.478
	C473.043,74.256,465.57,66.783,456.348,66.783z"/>
</svg>