<?xml version="1.0" encoding="UTF-8" standalone="no"?>
<!-- Uploaded to: SVG Repo, www.svgrepo.com, Generator: SVG Repo Mixer Tools -->

<svg
   height="800px"
   width="800px"
   version="1.1"
   id="Layer_1"
   viewBox="0 0 512 512"
   xml:space="preserve"
   sodipodi:docname="trashcan gold fast.svg"
   inkscape:version="1.3.2 (091e20e, 2023-11-25, custom)"
   xmlns:inkscape="http://www.inkscape.org/namespaces/inkscape"
   xmlns:sodipodi="http://sodipodi.sourceforge.net/DTD/sodipodi-0.dtd"
   xmlns="http://www.w3.org/2000/svg"
   xmlns:svg="http://www.w3.org/2000/svg"><defs
   id="defs9" /><sodipodi:namedview
   id="namedview9"
   pagecolor="#ffffff"
   bordercolor="#111111"
   borderopacity="1"
   inkscape:showpageshadow="0"
   inkscape:pageopacity="0"
   inkscape:pagecheckerboard="1"
   inkscape:deskcolor="#d1d1d1"
   inkscape:zoom="1.08125"
   inkscape:cx="363.00578"
   inkscape:cy="399.07514"
   inkscape:window-width="1920"
   inkscape:window-height="1121"
   inkscape:window-x="-9"
   inkscape:window-y="-9"
   inkscape:window-maximized="1"
   inkscape:current-layer="Layer_1" />
<path
   style="fill:#b4b0a8;fill-opacity:1"
   d="M422.957,133.565c-120.83,0-213.083,0-333.913,0c-9.223,0-16.696,7.473-16.696,16.696v345.043  c0,9.223,7.473,16.696,16.696,16.696c120.83,0,213.083,0,333.913,0c9.223,0,16.696-7.473,16.696-16.696V150.261  C439.652,141.038,432.179,133.565,422.957,133.565z"
   id="path1" />
<path
   style="fill:#99917f;fill-opacity:1"
   d="M422.957,133.565H256V512h166.957c9.223,0,16.696-7.473,16.696-16.696V150.261  C439.652,141.038,432.179,133.565,422.957,133.565z"
   id="path2" />
<g
   id="g5">
	<path
   style="fill:#57565C;"
   d="M155.826,445.217c-9.223,0-16.696-7.473-16.696-16.696V217.043c0-9.223,7.473-16.696,16.696-16.696   s16.696,7.473,16.696,16.696v211.478C172.522,437.744,165.049,445.217,155.826,445.217z"
   id="path3" />
	<path
   style="fill:#57565C;"
   d="M256,445.217c-9.223,0-16.696-7.473-16.696-16.696V217.043c0-9.223,7.473-16.696,16.696-16.696   s16.696,7.473,16.696,16.696v211.478C272.696,437.744,265.223,445.217,256,445.217z"
   id="path4" />
	<path
   style="fill:#57565C;"
   d="M356.174,445.217c-9.223,0-16.696-7.473-16.696-16.696V217.043c0-9.223,7.473-16.696,16.696-16.696   s16.696,7.473,16.696,16.696v211.478C372.87,437.744,365.397,445.217,356.174,445.217z"
   id="path5" />
</g>
<path
   style="fill:#969282;fill-opacity:1"
   d="M322.783,0c-48.332,0-85.234,0-133.565,0c-9.223,0-16.696,7.473-16.696,16.696v66.783  c0,9.223,7.473,16.696,16.696,16.696c48.332,0,85.234,0,133.565,0c9.223,0,16.696-7.473,16.696-16.696V16.696  C339.478,7.473,332.005,0,322.783,0z M306.087,66.783c-36.248,0-63.925,0-100.174,0V33.391c36.248,0,63.925,0,100.174,0V66.783z"
   id="path6" />
<path
   style="fill:#cdcac2;fill-opacity:1"
   d="M456.348,66.783c-144.996,0-255.699,0-400.696,0c-9.223,0-16.696,7.473-16.696,16.696v66.783  c0,9.223,7.473,16.696,16.696,16.696c144.996,0,255.699,0,400.696,0c9.223,0,16.696-7.473,16.696-16.696V83.478  C473.043,74.256,465.57,66.783,456.348,66.783z"
   id="path7" />
<path
   style="fill:#87816f;fill-opacity:1"
   d="M322.783,0H256v33.391h50.087v33.391H256v33.391h66.783c9.223,0,16.696-7.473,16.696-16.696V16.696  C339.478,7.473,332.005,0,322.783,0z"
   id="path8" />
<path
   style="fill:#ccbd90;fill-opacity:1"
   d="M456.348,66.783H256v100.174h200.348c9.223,0,16.696-7.473,16.696-16.696V83.478  C473.043,74.256,465.57,66.783,456.348,66.783z"
   id="path9" />
<ellipse
   style="fill:#ffcc00;stroke:#554400;stroke-width:1.80851;stroke-dasharray:none"
   id="path10"
   cx="397.16995"
   cy="320.53513"
   rx="7.5267296"
   ry="7.247962" /><ellipse
   style="fill:#ffcc00;stroke:#554400;stroke-width:1.80851;stroke-dasharray:none"
   id="path10-2"
   cx="313.18198"
   cy="395.00815"
   rx="7.5267296"
   ry="7.247962" /><ellipse
   style="fill:#ffcc00;stroke:#554400;stroke-width:1.80851;stroke-dasharray:none"
   id="path10-6"
   cx="204.06381"
   cy="366.92587"
   rx="7.5267296"
   ry="7.247962" /><ellipse
   style="fill:#ffcc00;stroke:#554400;stroke-width:1.80851;stroke-dasharray:none"
   id="path10-60"
   cx="224.65849"
   cy="473.80585"
   rx="7.5267296"
   ry="7.247962" /><ellipse
   style="fill:#ffcc00;stroke:#554400;stroke-width:1.80851;stroke-dasharray:none"
   id="path10-67"
   cx="416.38474"
   cy="443.53348"
   rx="7.5267296"
   ry="7.247962" /><path
   sodipodi:type="star"
   style="fill:#ff8c69;stroke:#3f0000;stroke-width:3.84"
   id="path14"
   inkscape:flatsided="true"
   sodipodi:sides="3"
   sodipodi:cx="203.02428"
   sodipodi:cy="26.635838"
   sodipodi:r1="65.725731"
   sodipodi:r2="32.862865"
   sodipodi:arg1="-0.027020449"
   sodipodi:arg2="1.0201771"
   inkscape:rounded="0.05"
   inkscape:randomized="0"
   d="m 268.72602,24.860115 c 0.15378,5.689937 -92.01027,62.274749 -97.01479,59.562959 -5.00452,-2.71179 -7.92638,-110.820602 -3.07564,-113.79875 4.85074,-2.978148 99.93664,48.545853 100.09043,54.235791 z"
   inkscape:transform-center-x="-12.467192"
   inkscape:transform-center-y="0.061891972"
   transform="matrix(0.85472744,0.02118462,-0.02118462,0.85472744,148.18649,40.750069)" /><path
   sodipodi:type="star"
   style="fill:#ff8c69;stroke:#3f0000;stroke-width:3.84"
   id="path14-1"
   inkscape:flatsided="true"
   sodipodi:sides="3"
   sodipodi:cx="203.02428"
   sodipodi:cy="26.635838"
   sodipodi:r1="65.725731"
   sodipodi:r2="32.862865"
   sodipodi:arg1="-0.027020449"
   sodipodi:arg2="1.0201771"
   inkscape:rounded="0.05"
   inkscape:randomized="0"
   d="m 268.72602,24.860115 c 0.15378,5.689937 -92.01027,62.274749 -97.01479,59.562959 -5.00452,-2.71179 -7.92638,-110.820602 -3.07564,-113.79875 4.85074,-2.978148 99.93664,48.545853 100.09043,54.235791 z"
   inkscape:transform-center-x="-12.467192"
   inkscape:transform-center-y="0.061891972"
   transform="matrix(0.85472744,0.02118462,-0.02118462,0.85472744,253.74292,40.750069)" /></svg>
