<?xml version="1.0" encoding="UTF-8" standalone="no"?>
<!-- Uploaded to: SVG Repo, www.svgrepo.com, Generator: SVG Repo Mixer Tools -->

<svg
   version="1.1"
   id="Capa_1"
   viewBox="0 0 100 100"
   xml:space="preserve"
   width="100"
   height="100"
   xmlns="http://www.w3.org/2000/svg"
   xmlns:svg="http://www.w3.org/2000/svg"><defs
   id="defs12" />

















<g
   id="g12"
   transform="translate(5.0689655)"><path
     style="fill:#d6d9df;stroke-width:1.72414"
     d="M 78.258621,100 H 11.603448 C 9.0603448,100 7,97.939655 7,95.396552 V 4.6034483 C 7,2.0603448 9.0603448,0 11.603448,0 h 66.655173 c 2.543103,0 4.603448,2.0603448 4.603448,4.6034483 V 95.396552 C 82.862069,97.939655 80.801724,100 78.258621,100 Z"
     id="path1" /><path
     style="fill:#eaebf0;stroke-width:1.72414"
     d="M 78.258621,0 H 11.603448 C 9.0603448,0 7,2.0603448 7,4.6034483 V 20.689655 H 82.862069 V 4.6034483 C 82.862069,2.0603448 80.801724,0 78.258621,0 Z"
     id="path2" /><rect
     x="32.862068"
     y="3.4482758"
     style="fill:#a4ca83;stroke-width:1.72414"
     width="24.137932"
     height="13.793103"
     id="rect2" /><circle
     style="fill:#eaebf0;stroke-width:1.72414"
     cx="44.931034"
     cy="60.344826"
     r="29.310345"
     id="circle2" /><circle
     style="fill:#7383bf;stroke-width:1.72414"
     cx="44.931034"
     cy="60.344826"
     r="22.413794"
     id="circle3" /><path
     style="fill:#556080;stroke-width:1.72414"
     d="m 66.02931,60.344828 c -4.098276,5.244827 -10.470689,8.620689 -17.65,8.620689 h -5.172413 c -5.815518,0 -10.94138,2.879311 -14.063794,7.284483 4.051725,4.02069 9.627587,6.508621 15.787931,6.508621 12.379311,0 22.413794,-10.034483 22.413794,-22.413793 0,-0.584483 -0.879311,-0.556897 -1.315518,0 z"
     id="path3" /><path
     style="fill:#bfcaef;stroke-width:1.72414"
     d="m 31.025862,55.172414 c -0.256896,0 -0.518965,-0.0569 -0.765517,-0.179311 -0.853448,-0.424137 -1.2,-1.45862 -0.777586,-2.312069 2.936207,-5.906896 8.855172,-9.577586 15.448275,-9.577586 0.951725,0 1.724138,0.77069 1.724138,1.724138 0,0.953448 -0.772413,1.724138 -1.724138,1.724138 -5.275862,0 -10.012068,2.936207 -12.360344,7.663793 -0.301724,0.606897 -0.912069,0.956897 -1.544828,0.956897 z"
     id="path4" /><circle
     style="fill:#bfcaef;stroke-width:1.72414"
     cx="29.413794"
     cy="58.620689"
     r="1.7241379"
     id="circle4" /><circle
     style="fill:#7383bf;stroke-width:1.72414"
     cx="62.172413"
     cy="67.241379"
     r="1.7241379"
     id="circle5" /><circle
     style="fill:#7383bf;stroke-width:1.72414"
     cx="36.310345"
     cy="72.413795"
     r="1.7241379"
     id="circle6" /><circle
     style="fill:#7383bf;stroke-width:1.72414"
     cx="41.482758"
     cy="77.586205"
     r="1.7241379"
     id="circle7" /><circle
     style="fill:#7383bf;stroke-width:1.72414"
     cx="46.655174"
     cy="72.413795"
     r="1.7241379"
     id="circle8" /><circle
     style="fill:#7383bf;stroke-width:1.72414"
     cx="57"
     cy="72.413795"
     r="1.7241379"
     id="circle9" /><circle
     style="fill:#7383bf;stroke-width:1.72414"
     cx="51.827587"
     cy="77.586205"
     r="1.7241379"
     id="circle10" /><path
     style="fill:#999a9f;stroke-width:1.72414"
     d="m 24.241379,10.344828 c 0,-2.856897 -2.315517,-5.1724142 -5.172413,-5.1724142 -2.856897,0 -5.172414,2.3155172 -5.172414,5.1724142 0,0.294827 0.03965,0.57931 0.08621,0.862069 -0.04655,0.282758 -0.08621,0.567241 -0.08621,0.862069 0,2.856896 2.315517,5.172413 5.172414,5.172413 2.856896,0 5.172413,-2.315517 5.172413,-5.172413 0,-0.294828 -0.03965,-0.579311 -0.08621,-0.862069 0.04655,-0.282759 0.08621,-0.567242 0.08621,-0.862069 z"
     id="path10" /><circle
     style="fill:#c2c4c8;stroke-width:1.72414"
     cx="19.068966"
     cy="10.344828"
     r="5.1724138"
     id="circle11" /><path
     style="fill:#999a9f;stroke-width:1.72414"
     d="m 74.241379,10.344828 c 0,-2.856897 -2.315517,-5.1724142 -5.172413,-5.1724142 -2.856897,0 -5.172414,2.3155172 -5.172414,5.1724142 0,0.294827 0.03966,0.57931 0.08621,0.862069 -0.04655,0.282758 -0.08621,0.567241 -0.08621,0.862069 0,2.856896 2.315517,5.172413 5.172414,5.172413 2.856896,0 5.172413,-2.315517 5.172413,-5.172413 0,-0.294828 -0.03965,-0.579311 -0.08621,-0.862069 0.04655,-0.282759 0.08621,-0.567242 0.08621,-0.862069 z"
     id="path11" /><circle
     style="fill:#c2c4c8;stroke-width:1.72414"
     cx="69.068962"
     cy="10.344828"
     r="5.1724138"
     id="circle12" /></g>
</svg>
